SplineFontDB: 1.0
FontName: DejaVuSansMono-Roman
FullName: DejaVu Sans Mono
FamilyName: DejaVu Sans Mono
Weight: Book
Copyright: Copyright (c) 2003 by Bitstream, Inc. All Rights Reserved.\nDejaVu changes by Stepan Roh are in public domain\n
Version: Release 1.10 (DejaVu 1.3)
ItalicAngle: 0
UnderlinePosition: -213
UnderlineWidth: 141
Ascent: 1556
Descent: 492
Order2: 1
NeedsXUIDChange: 1
FSType: 4
PfmFamily: 17
TTFWeight: 400
TTFWidth: 5
Panose: 2 11 6 9 3 8 4 2 2 4
LineGap: 410
VLineGap: 0
OS2TypoAscent: 1556
OS2TypoDescent: -492
OS2WinAscent: 1901
OS2WinDescent: 483
ScriptLang: 2
 1 DFLT 1 dflt 
 1 latn 1 dflt 
TtfTable: prep 1819
\H79^'sa'0"[O+/'`aO"!s',:J,f]Q'EJ+4!s'&8rW!$$&c`OE!s&u6rW!$$&-2\0!s&o4RK*Ej
%KQJ.!s&k:lUM+E,lnGTI/j?M$ihRR!s&c01&qCW$36@l!s&].rW!$$#QP>7!s&W,rW!$$"ooqL
!s&Q*rW!$$"98o3!s&K(,le#J!W`3"!s&Ef=oJO&rWE+I"8r-#qu-]o1'@?a"8I9Hp\'OLp\k9h
^]aB(=U"MX"876Jp%0R7oiVCi5Qp^+"7u(:"nVQmnh1+8rWDZh"7IuImM#cjQ36L>7g88Y"73Pt
d6R^7lUM'Bl!st_Q36A^"6f^dkN3]ekPbSG)[#4$"6=5"j8K/?]*%$M)$T!q"5k%!hj+B$rWD!U
"5MWG"l0(ZgD'hEQ35gm'a<:i"5&S@"kXOlf6mbP3Wmol$O,'A"4[;Pe'\R,e,BHt$3S]T"47#L
c\`;<cQ!&4('Dh\"3d&5bDRYMbPhUdrWC8j"3CHDa8Q1\rWC-.%0a]L"2k*?_YsYRrWBrq$O+<[
"2>6H^:h,^^A\5J]Nk]S]*#`s"MD>m"h\+C]KcV3,m1aX"1a^"\;roZ\,HK<O$NrXq?+-o%0a-<
"1)M?Z=F'B%KipJ"0_\+Y5U]b"0MP)XSr=&&d,05"0&4/"fX6ZW"&p-V@a!0-j-=Y"/VeF"f6VL
Ub)\DrWAno"/5\rTV!)*TO\.sSe)'t)$?HA".]c$SGiV[RLKFirWASu".>N/"e#>lQnAK-O$Nr9
Q33G<]*4N""-o*V"dQ\%Q%0"%O<k'p>m$<V"I&feP5YQGO<k'm]*"-@"-8?d"ckqONf=DMNYDST
$Nl?G,mB6<",i$K"cFZ/M@frIrW@uU",HjXL4p3CLAh:/&Hd^c",$RTJe:<QJl;c&rW@[q"+PcJ
"b6LRIXM<H*Wpfh"+(L[HN""jrW@?C"*J\o"a(=XFgqGP5hZ?_$j1Ue"EP1XF$KkKrW@0>"*"5A
Df/JWDjCKCD(#R*;Zgkb")Rr=CGH!,rW?ji").N5B=e7XrW?a2"(_B5@q$J_A,ZR>!"]<C*WojM
"(;*1?iC.6=pkL?%Kg!I"'inL>?VC<>8.0C$NjQ2"'?6>=8i;&rW?.>)$O"q"'#7%;uQksrW?#G
"&St!:D<n+rW>jq/HnlJ"&-</9.0m78JhV'2ZlW=&d:iD"%Yit"\AUp7mdmm7q;]k72Q1t])tJ=
"%5Kh"[k9O6UD@g6P9Jg\,no\#m<R\%g>93"%'L!!'ghn5sPn`5n=&`\,jB1#m<LX$jAm+"$j?s

StartChar: .notdef
Encoding: 0 -1 0
Width: 1233
Flags: W
Fore
104 -362 m 1,0,-1
 104 1444 l 1,1,-1
 1128 1444 l 1,2,-1
 1128 -362 l 1,3,-1
 104 -362 l 1,0,-1
219 -248 m 1,4,-1
 1014 -248 l 1,5,-1
 1014 1329 l 1,6,-1
 219 1329 l 1,7,-1
 219 -248 l 1,4,-1
EndSplineSet
EndChar
StartChar: exclam
Encoding: 33 33 4
Width: 1233
Flags: W
Fore
516 1493 m 1,0,-1
 719 1493 l 1,1,-1
 719 838 l 1,2,-1
 698 481 l 1,3,-1
 537 481 l 1,4,-1
 516 838 l 1,5,-1
 516 1493 l 1,0,-1
516 254 m 1,6,-1
 719 254 l 1,7,-1
 719 0 l 1,8,-1
 516 0 l 1,9,-1
 516 254 l 1,6,-1
EndSplineSet
EndChar
StartChar: quotedbl
Encoding: 34 34 5
Width: 1233
Flags: W
Fore
895 1493 m 1,0,-1
 895 938 l 1,1,-1
 721 938 l 1,2,-1
 721 1493 l 1,3,-1
 895 1493 l 1,0,-1
512 1493 m 1,4,-1
 512 938 l 1,5,-1
 338 938 l 1,6,-1
 338 1493 l 1,7,-1
 512 1493 l 1,4,-1
EndSplineSet
EndChar
StartChar: numbersign
Encoding: 35 35 6
Width: 1233
Flags: W
Fore
684 1470 m 1,0,-1
 580 1055 l 1,1,-1
 825 1055 l 1,2,-1
 930 1470 l 1,3,-1
 1090 1470 l 1,4,-1
 985 1055 l 1,5,-1
 1229 1055 l 1,6,-1
 1229 901 l 1,7,-1
 948 901 l 1,8,-1
 864 567 l 1,9,-1
 1114 567 l 1,10,-1
 1114 414 l 1,11,-1
 825 414 l 1,12,-1
 721 0 l 1,13,-1
 561 0 l 1,14,-1
 666 414 l 1,15,-1
 420 414 l 1,16,-1
 315 0 l 1,17,-1
 156 0 l 1,18,-1
 260 414 l 1,19,-1
 2 414 l 1,20,-1
 2 567 l 1,21,-1
 299 567 l 1,22,-1
 383 901 l 1,23,-1
 117 901 l 1,24,-1
 117 1055 l 1,25,-1
 420 1055 l 1,26,-1
 524 1470 l 1,27,-1
 684 1470 l 1,0,-1
788 901 m 1,28,-1
 543 901 l 1,29,-1
 459 567 l 1,30,-1
 705 567 l 1,31,-1
 788 901 l 1,28,-1
EndSplineSet
EndChar
StartChar: dollar
Encoding: 36 36 7
Width: 1233
Flags: W
Fore
692 580 m 1,0,-1
 692 146 l 1,1,2
 802 149 802 149 864 207 c 128,-1,3
 926 265 926 265 926 365 c 0,4,5
 926 458 926 458 870 509.5 c 128,-1,6
 814 561 814 561 692 580 c 1,0,-1
592 770 m 1,7,-1
 592 1183 l 1,8,9
 488 1179 488 1179 429.5 1123 c 128,-1,10
 371 1067 371 1067 371 973 c 0,11,12
 371 887 371 887 425.5 837 c 128,-1,13
 480 787 480 787 592 770 c 1,7,-1
692 -301 m 1,14,-1
 592 -301 l 1,15,-1
 591 0 l 1,16,17
 489 5 489 5 388.5 28 c 128,-1,18
 288 51 288 51 190 92 c 1,19,-1
 190 272 l 1,20,21
 290 210 290 210 391.5 177 c 128,-1,22
 493 144 493 144 592 142 c 1,23,-1
 592 600 l 1,24,25
 392 631 392 631 291 722 c 128,-1,26
 190 813 190 813 190 963 c 0,27,28
 190 1120 190 1120 295.5 1213.5 c 128,-1,29
 401 1307 401 1307 592 1321 c 1,30,-1
 592 1556 l 1,31,-1
 692 1556 l 1,32,-1
 693 1321 l 1,33,34
 772 1316 772 1316 853 1301 c 128,-1,35
 934 1286 934 1286 1018 1260 c 1,36,-1
 1018 1087 l 1,37,38
 933 1130 933 1130 852.5 1153.5 c 128,-1,39
 772 1177 772 1177 692 1181 c 1,40,-1
 692 750 l 1,41,42
 898 719 898 719 1006 622 c 128,-1,43
 1114 525 1114 525 1114 371 c 0,44,45
 1114 217 1114 217 997.5 114 c 128,-1,46
 881 11 881 11 693 2 c 1,47,-1
 692 -301 l 1,14,-1
EndSplineSet
EndChar
StartChar: percent
Encoding: 37 37 8
Width: 1233
Flags: W
Fore
696 319 m 0,0,1
 696 241 696 241 748.5 188 c 128,-1,2
 801 135 801 135 879 135 c 0,3,4
 956 135 956 135 1009.5 188.5 c 128,-1,5
 1063 242 1063 242 1063 319 c 0,6,7
 1063 396 1063 396 1009 450 c 128,-1,8
 955 504 955 504 879 504 c 0,9,10
 801 504 801 504 748.5 451 c 128,-1,11
 696 398 696 398 696 319 c 0,0,1
561 319 m 0,12,13
 561 454 561 454 653 546.5 c 128,-1,14
 745 639 745 639 879 639 c 0,15,16
 943 639 943 639 1000.5 615 c 128,-1,17
 1058 591 1058 591 1104 545 c 0,18,19
 1150 498 1150 498 1175 440 c 128,-1,20
 1200 382 1200 382 1200 319 c 0,21,22
 1200 186 1200 186 1107 93 c 128,-1,23
 1014 0 1014 0 879 0 c 0,24,25
 743 0 743 0 652 91.5 c 128,-1,26
 561 183 561 183 561 319 c 0,12,13
121 465 m 1,27,-1
 86 561 l 1,28,-1
 1128 979 l 1,29,-1
 1169 883 l 1,30,-1
 121 465 l 1,27,-1
168 1112 m 0,31,32
 168 1033 168 1033 220.5 980.5 c 128,-1,33
 273 928 273 928 352 928 c 0,34,35
 429 928 429 928 483 981.5 c 128,-1,36
 537 1035 537 1035 537 1112 c 0,37,38
 537 1189 537 1189 483 1242.5 c 128,-1,39
 429 1296 429 1296 352 1296 c 0,40,41
 275 1296 275 1296 221.5 1243 c 128,-1,42
 168 1190 168 1190 168 1112 c 0,31,32
33 1112 m 0,43,44
 33 1247 33 1247 125 1339.5 c 128,-1,45
 217 1432 217 1432 352 1432 c 0,46,47
 416 1432 416 1432 474.5 1408 c 128,-1,48
 533 1384 533 1384 578 1339 c 0,49,50
 623 1294 623 1294 647.5 1235.5 c 128,-1,51
 672 1177 672 1177 672 1112 c 0,52,53
 672 978 672 978 579 885.5 c 128,-1,54
 486 793 486 793 352 793 c 0,55,56
 217 793 217 793 125 885 c 128,-1,57
 33 977 33 977 33 1112 c 0,43,44
EndSplineSet
EndChar
StartChar: ampersand
Encoding: 38 38 9
Width: 1233
Flags: W
Fore
547 907 m 2,0,-1
 963 348 l 1,1,2
 1002 397 1002 397 1021 472 c 128,-1,3
 1040 547 1040 547 1040 651 c 0,4,5
 1040 683 1040 683 1037 753 c 1,6,-1
 1036 760 l 1,7,-1
 1200 760 l 1,8,-1
 1200 721 l 2,9,10
 1200 560 1200 560 1163 438.5 c 128,-1,11
 1126 317 1126 317 1051 229 c 1,12,-1
 1221 0 l 1,13,-1
 1008 0 l 1,14,-1
 930 109 l 1,15,16
 847 39 847 39 754 5 c 128,-1,17
 661 -29 661 -29 555 -29 c 0,18,19
 339 -29 339 -29 198 105.5 c 128,-1,20
 57 240 57 240 57 444 c 0,21,22
 57 581 57 581 126 698 c 128,-1,23
 195 815 195 815 334 915 c 1,24,25
 284 987 284 987 260 1056 c 128,-1,26
 236 1125 236 1125 236 1196 c 0,27,28
 236 1346 236 1346 335.5 1433 c 128,-1,29
 435 1520 435 1520 608 1520 c 0,30,31
 673 1520 673 1520 738.5 1508 c 128,-1,32
 804 1496 804 1496 874 1473 c 1,33,-1
 874 1290 l 1,34,35
 815 1329 815 1329 752.5 1347.5 c 128,-1,36
 690 1366 690 1366 621 1366 c 0,37,38
 524 1366 524 1366 468 1320.5 c 128,-1,39
 412 1275 412 1275 412 1198 c 0,40,41
 412 1139 412 1139 441 1074.5 c 128,-1,42
 470 1010 470 1010 547 907 c 2,0,-1
416 803 m 1,43,44
 324 730 324 730 278.5 648.5 c 128,-1,45
 233 567 233 567 233 475 c 0,46,47
 233 324 233 324 333 224.5 c 128,-1,48
 433 125 433 125 588 125 c 0,49,50
 630 125 630 125 676 137 c 128,-1,51
 722 149 722 149 766 172 c 0,52,53
 793 187 793 187 810.5 198.5 c 128,-1,54
 828 210 828 210 844 223 c 1,55,-1
 416 803 l 1,43,44
EndSplineSet
EndChar
StartChar: quotesingle
Encoding: 39 39 10
Width: 1233
Flags: W
Fore
702 1493 m 1,0,-1
 702 938 l 1,1,-1
 528 938 l 1,2,-1
 528 1493 l 1,3,-1
 702 1493 l 1,0,-1
EndSplineSet
EndChar
StartChar: parenleft
Encoding: 40 40 11
Width: 1233
Flags: W
Fore
885 1554 m 1,0,1
 752 1326 752 1326 686.5 1099.5 c 128,-1,2
 621 873 621 873 621 643 c 0,3,4
 621 414 621 414 686.5 187 c 128,-1,5
 752 -40 752 -40 885 -270 c 1,6,-1
 725 -270 l 1,7,8
 574 -32 574 -32 500 193.5 c 128,-1,9
 426 419 426 419 426 643 c 0,10,11
 426 866 426 866 500 1092 c 128,-1,12
 574 1318 574 1318 725 1554 c 1,13,-1
 885 1554 l 1,0,1
EndSplineSet
EndChar
StartChar: parenright
Encoding: 41 41 12
Width: 1233
Flags: W
Fore
348 1554 m 1,0,-1
 508 1554 l 1,1,2
 659 1318 659 1318 733 1092 c 128,-1,3
 807 866 807 866 807 643 c 0,4,5
 807 418 807 418 733 192 c 128,-1,6
 659 -34 659 -34 508 -270 c 1,7,-1
 348 -270 l 1,8,9
 481 -38 481 -38 546.5 189 c 128,-1,10
 612 416 612 416 612 643 c 0,11,12
 612 871 612 871 546.5 1098 c 128,-1,13
 481 1325 481 1325 348 1554 c 1,0,-1
EndSplineSet
EndChar
StartChar: asterisk
Encoding: 42 42 13
Width: 1233
Flags: W
Fore
1067 1247 m 1,0,-1
 709 1053 l 1,1,-1
 1067 858 l 1,2,-1
 1010 760 l 1,3,-1
 674 963 l 1,4,-1
 674 586 l 1,5,-1
 559 586 l 1,6,-1
 559 963 l 1,7,-1
 223 760 l 1,8,-1
 166 858 l 1,9,-1
 524 1053 l 1,10,-1
 166 1247 l 1,11,-1
 223 1346 l 1,12,-1
 559 1143 l 1,13,-1
 559 1520 l 1,14,-1
 674 1520 l 1,15,-1
 674 1143 l 1,16,-1
 1010 1346 l 1,17,-1
 1067 1247 l 1,0,-1
EndSplineSet
EndChar
StartChar: plus
Encoding: 43 43 14
Width: 1233
Flags: W
Fore
700 1171 m 1,0,-1
 700 727 l 1,1,-1
 1145 727 l 1,2,-1
 1145 557 l 1,3,-1
 700 557 l 1,4,-1
 700 113 l 1,5,-1
 532 113 l 1,6,-1
 532 557 l 1,7,-1
 88 557 l 1,8,-1
 88 727 l 1,9,-1
 532 727 l 1,10,-1
 532 1171 l 1,11,-1
 700 1171 l 1,0,-1
EndSplineSet
EndChar
StartChar: comma
Encoding: 44 44 15
Width: 1233
Flags: W
Fore
502 303 m 1,0,-1
 754 303 l 1,1,-1
 754 96 l 1,2,-1
 557 -287 l 1,3,-1
 403 -287 l 1,4,-1
 502 96 l 1,5,-1
 502 303 l 1,0,-1
EndSplineSet
EndChar
StartChar: hyphen
Encoding: 45 45 16
Width: 1233
Flags: W
Fore
356 643 m 1,0,-1
 877 643 l 1,1,-1
 877 479 l 1,2,-1
 356 479 l 1,3,-1
 356 643 l 1,0,-1
EndSplineSet
EndChar
StartChar: period
Encoding: 46 46 17
Width: 1233
Flags: W
Fore
489 305 m 1,0,-1
 741 305 l 1,1,-1
 741 0 l 1,2,-1
 489 0 l 1,3,-1
 489 305 l 1,0,-1
EndSplineSet
EndChar
StartChar: slash
Encoding: 47 47 18
Width: 1233
Flags: W
Fore
889 1493 m 1,0,-1
 1079 1493 l 1,1,-1
 293 -190 l 1,2,-1
 102 -190 l 1,3,-1
 889 1493 l 1,0,-1
EndSplineSet
EndChar
StartChar: zero
Encoding: 48 48 19
Width: 1233
Flags: W
Fore
483 750 m 0,0,1
 483 805 483 805 521.5 845 c 128,-1,2
 560 885 560 885 614 885 c 0,3,4
 670 885 670 885 710 845 c 128,-1,5
 750 805 750 805 750 750 c 0,6,7
 750 694 750 694 710.5 655 c 128,-1,8
 671 616 671 616 614 616 c 0,9,10
 558 616 558 616 520.5 654 c 128,-1,11
 483 692 483 692 483 750 c 0,0,1
616 1360 m 0,12,13
 475 1360 475 1360 405.5 1208 c 128,-1,14
 336 1056 336 1056 336 745 c 0,15,16
 336 435 336 435 405.5 283 c 128,-1,17
 475 131 475 131 616 131 c 0,18,19
 758 131 758 131 827.5 283 c 128,-1,20
 897 435 897 435 897 745 c 0,21,22
 897 1056 897 1056 827.5 1208 c 128,-1,23
 758 1360 758 1360 616 1360 c 0,12,13
616 1520 m 0,24,25
 855 1520 855 1520 977.5 1324 c 128,-1,26
 1100 1128 1100 1128 1100 745 c 0,27,28
 1100 363 1100 363 977.5 167 c 128,-1,29
 855 -29 855 -29 616 -29 c 0,30,31
 377 -29 377 -29 255 167 c 128,-1,32
 133 363 133 363 133 745 c 0,33,34
 133 1128 133 1128 255 1324 c 128,-1,35
 377 1520 377 1520 616 1520 c 0,24,25
EndSplineSet
EndChar
StartChar: one
Encoding: 49 49 20
Width: 1233
Flags: W
Fore
270 170 m 1,0,-1
 584 170 l 1,1,-1
 584 1311 l 1,2,-1
 246 1235 l 1,3,-1
 246 1419 l 1,4,-1
 582 1493 l 1,5,-1
 784 1493 l 1,6,-1
 784 170 l 1,7,-1
 1094 170 l 1,8,-1
 1094 0 l 1,9,-1
 270 0 l 1,10,-1
 270 170 l 1,0,-1
EndSplineSet
EndChar
StartChar: two
Encoding: 50 50 21
Width: 1233
Flags: W
Fore
373 170 m 1,0,-1
 1059 170 l 1,1,-1
 1059 0 l 1,2,-1
 152 0 l 1,3,-1
 152 170 l 1,4,5
 339 367 339 367 479 518 c 128,-1,6
 619 669 619 669 672 731 c 1,7,8
 772 853 772 853 807 928.5 c 128,-1,9
 842 1004 842 1004 842 1083 c 0,10,11
 842 1208 842 1208 768.5 1279 c 128,-1,12
 695 1350 695 1350 567 1350 c 0,13,14
 476 1350 476 1350 376 1317 c 128,-1,15
 276 1284 276 1284 164 1217 c 1,16,-1
 164 1421 l 1,17,18
 267 1470 267 1470 366.5 1495 c 128,-1,19
 466 1520 466 1520 563 1520 c 0,20,21
 782 1520 782 1520 915.5 1403.5 c 128,-1,22
 1049 1287 1049 1287 1049 1098 c 0,23,24
 1049 1002 1049 1002 1004.5 906 c 128,-1,25
 960 810 960 810 860 694 c 0,26,27
 804 629 804 629 697.5 514 c 128,-1,28
 591 399 591 399 373 170 c 1,0,-1
EndSplineSet
EndChar
StartChar: three
Encoding: 51 51 22
Width: 1233
Flags: W
Fore
776 799 m 1,0,1
 923 760 923 760 1001 660.5 c 128,-1,2
 1079 561 1079 561 1079 412 c 0,3,4
 1079 206 1079 206 940.5 88.5 c 128,-1,5
 802 -29 802 -29 557 -29 c 0,6,7
 454 -29 454 -29 347 -10 c 128,-1,8
 240 9 240 9 137 45 c 1,9,-1
 137 246 l 1,10,11
 239 193 239 193 338 167 c 128,-1,12
 437 141 437 141 535 141 c 0,13,14
 701 141 701 141 790 216 c 128,-1,15
 879 291 879 291 879 432 c 0,16,17
 879 562 879 562 790 638.5 c 128,-1,18
 701 715 701 715 549 715 c 2,19,-1
 395 715 l 1,20,-1
 395 881 l 1,21,-1
 549 881 l 2,22,23
 688 881 688 881 766 942 c 128,-1,24
 844 1003 844 1003 844 1112 c 0,25,26
 844 1227 844 1227 771.5 1288.5 c 128,-1,27
 699 1350 699 1350 565 1350 c 0,28,29
 476 1350 476 1350 381 1330 c 128,-1,30
 286 1310 286 1310 182 1270 c 1,31,-1
 182 1456 l 1,32,33
 303 1488 303 1488 397.5 1504 c 128,-1,34
 492 1520 492 1520 565 1520 c 0,35,36
 783 1520 783 1520 913.5 1410.5 c 128,-1,37
 1044 1301 1044 1301 1044 1120 c 0,38,39
 1044 997 1044 997 975.5 915 c 128,-1,40
 907 833 907 833 776 799 c 1,0,1
EndSplineSet
EndChar
StartChar: four
Encoding: 52 52 23
Width: 1233
Flags: W
Fore
735 1309 m 1,0,-1
 264 520 l 1,1,-1
 735 520 l 1,2,-1
 735 1309 l 1,0,-1
702 1493 m 1,3,-1
 936 1493 l 1,4,-1
 936 520 l 1,5,-1
 1135 520 l 1,6,-1
 1135 356 l 1,7,-1
 936 356 l 1,8,-1
 936 0 l 1,9,-1
 735 0 l 1,10,-1
 735 356 l 1,11,-1
 102 356 l 1,12,-1
 102 547 l 1,13,-1
 702 1493 l 1,3,-1
EndSplineSet
EndChar
StartChar: five
Encoding: 53 53 24
Width: 1233
Flags: W
Fore
207 1493 m 1,0,-1
 963 1493 l 1,1,-1
 963 1323 l 1,2,-1
 391 1323 l 1,3,-1
 391 956 l 1,4,5
 434 972 434 972 477.5 979.5 c 128,-1,6
 521 987 521 987 565 987 c 0,7,8
 797 987 797 987 933 850 c 128,-1,9
 1069 713 1069 713 1069 479 c 0,10,11
 1069 243 1069 243 926.5 107 c 128,-1,12
 784 -29 784 -29 537 -29 c 0,13,14
 418 -29 418 -29 319.5 -13 c 128,-1,15
 221 3 221 3 143 35 c 1,16,-1
 143 240 l 1,17,18
 235 190 235 190 328 165.5 c 128,-1,19
 421 141 421 141 518 141 c 0,20,21
 685 141 685 141 775.5 229 c 128,-1,22
 866 317 866 317 866 479 c 0,23,24
 866 639 866 639 772.5 728 c 128,-1,25
 679 817 679 817 512 817 c 0,26,27
 431 817 431 817 354 798.5 c 128,-1,28
 277 780 277 780 207 743 c 1,29,-1
 207 1493 l 1,0,-1
EndSplineSet
EndChar
StartChar: six
Encoding: 54 54 25
Width: 1233
Flags: W
Fore
991 1460 m 1,0,-1
 991 1274 l 1,1,2
 928 1311 928 1311 857 1330.5 c 128,-1,3
 786 1350 786 1350 709 1350 c 0,4,5
 517 1350 517 1350 418 1205.5 c 128,-1,6
 319 1061 319 1061 319 780 c 1,7,8
 367 880 367 880 452 933.5 c 128,-1,9
 537 987 537 987 647 987 c 0,10,11
 863 987 863 987 981.5 854.5 c 128,-1,12
 1100 722 1100 722 1100 479 c 0,13,14
 1100 237 1100 237 978 104 c 128,-1,15
 856 -29 856 -29 635 -29 c 0,16,17
 375 -29 375 -29 254 157.5 c 128,-1,18
 133 344 133 344 133 745 c 0,19,20
 133 1123 133 1123 278.5 1321.5 c 128,-1,21
 424 1520 424 1520 700 1520 c 0,22,23
 774 1520 774 1520 848 1504.5 c 128,-1,24
 922 1489 922 1489 991 1460 c 1,0,-1
631 829 m 0,25,26
 502 829 502 829 428 736 c 128,-1,27
 354 643 354 643 354 479 c 0,28,29
 354 315 354 315 428 222 c 128,-1,30
 502 129 502 129 631 129 c 0,31,32
 765 129 765 129 833 217.5 c 128,-1,33
 901 306 901 306 901 479 c 0,34,35
 901 653 901 653 833 741 c 128,-1,36
 765 829 765 829 631 829 c 0,25,26
EndSplineSet
EndChar
StartChar: seven
Encoding: 55 55 26
Width: 1233
Flags: W
Fore
139 1493 m 1,0,-1
 1079 1493 l 1,1,-1
 1079 1407 l 1,2,-1
 545 0 l 1,3,-1
 334 0 l 1,4,-1
 854 1323 l 1,5,-1
 139 1323 l 1,6,-1
 139 1493 l 1,0,-1
EndSplineSet
EndChar
StartChar: eight
Encoding: 56 56 27
Width: 1233
Flags: W
Fore
616 709 m 0,0,1
 481 709 481 709 407.5 633.5 c 128,-1,2
 334 558 334 558 334 420 c 0,3,4
 334 282 334 282 408.5 205.5 c 128,-1,5
 483 129 483 129 616 129 c 0,6,7
 752 129 752 129 825.5 204.5 c 128,-1,8
 899 280 899 280 899 420 c 0,9,10
 899 557 899 557 824.5 633 c 128,-1,11
 750 709 750 709 616 709 c 0,0,1
440 793 m 1,12,13
 311 826 311 826 238.5 916 c 128,-1,14
 166 1006 166 1006 166 1133 c 0,15,16
 166 1311 166 1311 287 1415.5 c 128,-1,17
 408 1520 408 1520 616 1520 c 0,18,19
 825 1520 825 1520 946 1415.5 c 128,-1,20
 1067 1311 1067 1311 1067 1133 c 0,21,22
 1067 1006 1067 1006 994.5 916 c 128,-1,23
 922 826 922 826 793 793 c 1,24,25
 943 760 943 760 1022.5 660 c 128,-1,26
 1102 560 1102 560 1102 401 c 0,27,28
 1102 199 1102 199 973 85 c 128,-1,29
 844 -29 844 -29 616 -29 c 0,30,31
 388 -29 388 -29 259.5 84.5 c 128,-1,32
 131 198 131 198 131 399 c 0,33,34
 131 559 131 559 210.5 659.5 c 128,-1,35
 290 760 290 760 440 793 c 1,12,13
367 1114 m 0,36,37
 367 994 367 994 431 931 c 128,-1,38
 495 868 495 868 616 868 c 0,39,40
 738 868 738 868 802 931 c 128,-1,41
 866 994 866 994 866 1114 c 0,42,43
 866 1236 866 1236 802.5 1300 c 128,-1,44
 739 1364 739 1364 616 1364 c 0,45,46
 495 1364 495 1364 431 1299.5 c 128,-1,47
 367 1235 367 1235 367 1114 c 0,36,37
EndSplineSet
EndChar
StartChar: nine
Encoding: 57 57 28
Width: 1233
Flags: W
Fore
596 662 m 0,0,1
 725 662 725 662 798.5 755 c 128,-1,2
 872 848 872 848 872 1012 c 0,3,4
 872 1176 872 1176 798.5 1269 c 128,-1,5
 725 1362 725 1362 596 1362 c 0,6,7
 462 1362 462 1362 394 1273.5 c 128,-1,8
 326 1185 326 1185 326 1012 c 0,9,10
 326 838 326 838 393.5 750 c 128,-1,11
 461 662 461 662 596 662 c 0,0,1
236 31 m 1,12,-1
 236 217 l 1,13,14
 299 180 299 180 370 160.5 c 128,-1,15
 441 141 441 141 518 141 c 0,16,17
 710 141 710 141 808.5 285.5 c 128,-1,18
 907 430 907 430 907 711 c 1,19,20
 860 611 860 611 775 557.5 c 128,-1,21
 690 504 690 504 580 504 c 0,22,23
 364 504 364 504 245.5 637 c 128,-1,24
 127 770 127 770 127 1014 c 0,25,26
 127 1255 127 1255 248.5 1387.5 c 128,-1,27
 370 1520 370 1520 592 1520 c 0,28,29
 852 1520 852 1520 973 1333 c 128,-1,30
 1094 1146 1094 1146 1094 745 c 0,31,32
 1094 368 1094 368 948.5 169.5 c 128,-1,33
 803 -29 803 -29 526 -29 c 0,34,35
 453 -29 453 -29 379 -13.5 c 128,-1,36
 305 2 305 2 236 31 c 1,12,-1
EndSplineSet
EndChar
StartChar: colon
Encoding: 58 58 29
Width: 1233
Flags: W
Fore
489 1063 m 1,0,-1
 741 1063 l 1,1,-1
 741 760 l 1,2,-1
 489 760 l 1,3,-1
 489 1063 l 1,0,-1
489 305 m 1,4,-1
 741 305 l 1,5,-1
 741 0 l 1,6,-1
 489 0 l 1,7,-1
 489 305 l 1,4,-1
EndSplineSet
EndChar
StartChar: semicolon
Encoding: 59 59 30
Width: 1233
Flags: W
Fore
502 303 m 1,0,-1
 754 303 l 1,1,-1
 754 96 l 1,2,-1
 557 -287 l 1,3,-1
 403 -287 l 1,4,-1
 502 96 l 1,5,-1
 502 303 l 1,0,-1
489 1063 m 1,6,-1
 741 1063 l 1,7,-1
 741 760 l 1,8,-1
 489 760 l 1,9,-1
 489 1063 l 1,6,-1
EndSplineSet
EndChar
StartChar: less
Encoding: 60 60 31
Width: 1233
Flags: W
Fore
1145 961 m 1,0,-1
 295 641 l 1,1,-1
 1145 324 l 1,2,-1
 1145 141 l 1,3,-1
 88 559 l 1,4,-1
 88 725 l 1,5,-1
 1145 1143 l 1,6,-1
 1145 961 l 1,0,-1
EndSplineSet
EndChar
StartChar: equal
Encoding: 61 61 32
Width: 1233
Flags: W
Fore
88 524 m 1,0,-1
 1145 524 l 1,1,-1
 1145 352 l 1,2,-1
 88 352 l 1,3,-1
 88 524 l 1,0,-1
88 930 m 1,4,-1
 1145 930 l 1,5,-1
 1145 760 l 1,6,-1
 88 760 l 1,7,-1
 88 930 l 1,4,-1
EndSplineSet
EndChar
StartChar: greater
Encoding: 62 62 33
Width: 1233
Flags: W
Fore
88 961 m 1,0,-1
 88 1143 l 1,1,-1
 1145 725 l 1,2,-1
 1145 559 l 1,3,-1
 88 141 l 1,4,-1
 88 324 l 1,5,-1
 938 641 l 1,6,-1
 88 961 l 1,0,-1
EndSplineSet
EndChar
StartChar: question
Encoding: 63 63 34
Width: 1233
Flags: W
Fore
684 401 m 1,0,-1
 494 401 l 1,1,-1
 494 555 l 2,2,3
 494 653 494 653 524.5 721.5 c 128,-1,4
 555 790 555 790 639 872 c 2,5,-1
 729 961 l 1,6,7
 791 1020 791 1020 814.5 1064 c 128,-1,8
 838 1108 838 1108 838 1157 c 0,9,10
 838 1246 838 1246 772.5 1301 c 128,-1,11
 707 1356 707 1356 598 1356 c 0,12,13
 520 1356 520 1356 431 1321.5 c 128,-1,14
 342 1287 342 1287 244 1219 c 1,15,-1
 244 1407 l 1,16,17
 338 1464 338 1464 433.5 1492 c 128,-1,18
 529 1520 529 1520 633 1520 c 0,19,20
 819 1520 819 1520 929.5 1424 c 128,-1,21
 1040 1328 1040 1328 1040 1167 c 0,22,23
 1040 1091 1040 1091 1006.5 1025.5 c 128,-1,24
 973 960 973 960 879 868 c 2,25,-1
 791 782 l 2,26,27
 722 716 722 716 703 674 c 128,-1,28
 684 632 684 632 684 571 c 2,29,-1
 684 524 l 1,30,-1
 684 401 l 1,0,-1
487 254 m 1,31,-1
 690 254 l 1,32,-1
 690 0 l 1,33,-1
 487 0 l 1,34,-1
 487 254 l 1,31,-1
EndSplineSet
EndChar
StartChar: at
Encoding: 64 64 35
Width: 1233
Flags: W
Fore
1038 545 m 0,0,1
 1038 674 1038 674 974 751.5 c 128,-1,2
 910 829 910 829 803 829 c 0,3,4
 696 829 696 829 631.5 751.5 c 128,-1,5
 567 674 567 674 567 545 c 0,6,7
 567 415 567 415 631.5 337.5 c 128,-1,8
 696 260 696 260 803 260 c 0,9,10
 910 260 910 260 974 337.5 c 128,-1,11
 1038 415 1038 415 1038 545 c 0,0,1
1178 135 m 1,12,-1
 1034 135 l 1,13,-1
 1034 246 l 1,14,15
 997 183 997 183 931.5 149 c 128,-1,16
 866 115 866 115 784 115 c 0,17,18
 623 115 623 115 517.5 236 c 128,-1,19
 412 357 412 357 412 545 c 0,20,21
 412 733 412 733 517.5 854 c 128,-1,22
 623 975 623 975 784 975 c 0,23,24
 864 975 864 975 931 940 c 128,-1,25
 998 905 998 905 1034 844 c 1,26,-1
 1034 907 l 2,27,28
 1034 1063 1034 1063 946 1158 c 128,-1,29
 858 1253 858 1253 713 1253 c 0,30,31
 467 1253 467 1253 321.5 1061.5 c 128,-1,32
 176 870 176 870 176 543 c 0,33,34
 176 214 176 214 341 19 c 128,-1,35
 506 -176 506 -176 780 -176 c 0,36,37
 834 -176 834 -176 888 -166 c 128,-1,38
 942 -156 942 -156 999 -135 c 1,39,-1
 1047 -270 l 1,40,41
 984 -295 984 -295 922.5 -307 c 128,-1,42
 861 -319 861 -319 803 -319 c 0,43,44
 446 -319 446 -319 236.5 -86 c 128,-1,45
 27 147 27 147 27 543 c 0,46,47
 27 933 27 933 215 1164 c 128,-1,48
 403 1395 403 1395 719 1395 c 0,49,50
 928 1395 928 1395 1053 1262 c 128,-1,51
 1178 1129 1178 1129 1178 905 c 2,52,-1
 1178 135 l 1,12,-1
EndSplineSet
EndChar
StartChar: A
Encoding: 65 65 36
Width: 1233
Flags: W
Fore
616 1315 m 1,0,-1
 403 551 l 1,1,-1
 829 551 l 1,2,-1
 616 1315 l 1,0,-1
494 1493 m 1,3,-1
 739 1493 l 1,4,-1
 1196 0 l 1,5,-1
 987 0 l 1,6,-1
 877 389 l 1,7,-1
 354 389 l 1,8,-1
 246 0 l 1,9,-1
 37 0 l 1,10,-1
 494 1493 l 1,3,-1
EndSplineSet
EndChar
StartChar: B
Encoding: 66 66 37
Width: 1233
Flags: W
Fore
369 713 m 1,0,-1
 369 166 l 1,1,-1
 608 166 l 2,2,3
 784 166 784 166 859 227.5 c 128,-1,4
 934 289 934 289 934 430 c 0,5,6
 934 576 934 576 855 644.5 c 128,-1,7
 776 713 776 713 608 713 c 2,8,-1
 369 713 l 1,0,-1
369 1327 m 1,9,-1
 369 877 l 1,10,-1
 604 877 l 2,11,12
 750 877 750 877 815.5 933 c 128,-1,13
 881 989 881 989 881 1114 c 0,14,15
 881 1227 881 1227 816.5 1277 c 128,-1,16
 752 1327 752 1327 604 1327 c 2,17,-1
 369 1327 l 1,9,-1
166 1493 m 1,18,-1
 608 1493 l 2,19,20
 837 1493 837 1493 961 1394 c 128,-1,21
 1085 1295 1085 1295 1085 1114 c 0,22,23
 1085 977 1085 977 1019.5 898 c 128,-1,24
 954 819 954 819 823 799 c 1,25,26
 970 777 970 777 1053.5 673.5 c 128,-1,27
 1137 570 1137 570 1137 410 c 0,28,29
 1137 207 1137 207 1004 103.5 c 128,-1,30
 871 0 871 0 608 0 c 2,31,-1
 166 0 l 1,32,-1
 166 1493 l 1,18,-1
EndSplineSet
EndChar
StartChar: C
Encoding: 67 67 38
Width: 1233
Flags: W
Fore
1073 53 m 1,0,1
 996 12 996 12 915 -8.5 c 128,-1,2
 834 -29 834 -29 743 -29 c 0,3,4
 456 -29 456 -29 297.5 174 c 128,-1,5
 139 377 139 377 139 745 c 0,6,7
 139 1111 139 1111 298.5 1315.5 c 128,-1,8
 458 1520 458 1520 743 1520 c 0,9,10
 834 1520 834 1520 915 1499.5 c 128,-1,11
 996 1479 996 1479 1073 1438 c 1,12,-1
 1073 1231 l 1,13,14
 999 1292 999 1292 914 1324 c 128,-1,15
 829 1356 829 1356 743 1356 c 0,16,17
 546 1356 546 1356 448 1204 c 128,-1,18
 350 1052 350 1052 350 745 c 0,19,20
 350 439 350 439 448 287 c 128,-1,21
 546 135 546 135 743 135 c 0,22,23
 831 135 831 135 915.5 167 c 128,-1,24
 1000 199 1000 199 1073 260 c 1,25,-1
 1073 53 l 1,0,1
EndSplineSet
EndChar
StartChar: D
Encoding: 68 68 39
Width: 1233
Flags: W
Fore
436 166 m 2,0,1
 691 166 691 166 792 291.5 c 128,-1,2
 893 417 893 417 893 745 c 0,3,4
 893 1076 893 1076 792.5 1201.5 c 128,-1,5
 692 1327 692 1327 436 1327 c 2,6,-1
 340 1327 l 1,7,-1
 340 166 l 1,8,-1
 436 166 l 2,0,1
440 1493 m 2,9,10
 782 1493 782 1493 944 1311 c 128,-1,11
 1106 1129 1106 1129 1106 745 c 0,12,13
 1106 363 1106 363 944 181.5 c 128,-1,14
 782 0 782 0 440 0 c 2,15,-1
 137 0 l 1,16,-1
 137 1493 l 1,17,-1
 440 1493 l 2,9,10
EndSplineSet
EndChar
StartChar: E
Encoding: 69 69 40
Width: 1233
Flags: W
Fore
197 1493 m 1,0,-1
 1083 1493 l 1,1,-1
 1083 1323 l 1,2,-1
 399 1323 l 1,3,-1
 399 881 l 1,4,-1
 1053 881 l 1,5,-1
 1053 711 l 1,6,-1
 399 711 l 1,7,-1
 399 170 l 1,8,-1
 1102 170 l 1,9,-1
 1102 0 l 1,10,-1
 197 0 l 1,11,-1
 197 1493 l 1,0,-1
EndSplineSet
EndChar
StartChar: F
Encoding: 70 70 41
Width: 1233
Flags: W
Fore
233 1493 m 1,0,-1
 1112 1493 l 1,1,-1
 1112 1323 l 1,2,-1
 436 1323 l 1,3,-1
 436 883 l 1,4,-1
 1049 883 l 1,5,-1
 1049 713 l 1,6,-1
 436 713 l 1,7,-1
 436 0 l 1,8,-1
 233 0 l 1,9,-1
 233 1493 l 1,0,-1
EndSplineSet
EndChar
StartChar: G
Encoding: 71 71 42
Width: 1233
Flags: W
Fore
1104 123 m 1,0,1
 1023 48 1023 48 921.5 9.5 c 128,-1,2
 820 -29 820 -29 702 -29 c 0,3,4
 418 -29 418 -29 260 174.5 c 128,-1,5
 102 378 102 378 102 745 c 0,6,7
 102 1111 102 1111 262 1315.5 c 128,-1,8
 422 1520 422 1520 707 1520 c 0,9,10
 801 1520 801 1520 887 1493.5 c 128,-1,11
 973 1467 973 1467 1053 1413 c 1,12,-1
 1053 1206 l 1,13,14
 972 1283 972 1283 887 1319.5 c 128,-1,15
 802 1356 802 1356 707 1356 c 0,16,17
 510 1356 510 1356 411.5 1203.5 c 128,-1,18
 313 1051 313 1051 313 745 c 0,19,20
 313 434 313 434 408.5 284.5 c 128,-1,21
 504 135 504 135 702 135 c 0,22,23
 769 135 769 135 819.5 150.5 c 128,-1,24
 870 166 870 166 911 199 c 1,25,-1
 911 600 l 1,26,-1
 694 600 l 1,27,-1
 694 766 l 1,28,-1
 1104 766 l 1,29,-1
 1104 123 l 1,0,1
EndSplineSet
EndChar
StartChar: H
Encoding: 72 72 43
Width: 1233
Flags: W
Fore
137 1493 m 1,0,-1
 340 1493 l 1,1,-1
 340 881 l 1,2,-1
 893 881 l 1,3,-1
 893 1493 l 1,4,-1
 1096 1493 l 1,5,-1
 1096 0 l 1,6,-1
 893 0 l 1,7,-1
 893 711 l 1,8,-1
 340 711 l 1,9,-1
 340 0 l 1,10,-1
 137 0 l 1,11,-1
 137 1493 l 1,0,-1
EndSplineSet
EndChar
StartChar: I
Encoding: 73 73 44
Width: 1233
Flags: W
Fore
201 1493 m 1,0,-1
 1030 1493 l 1,1,-1
 1030 1323 l 1,2,-1
 717 1323 l 1,3,-1
 717 170 l 1,4,-1
 1030 170 l 1,5,-1
 1030 0 l 1,6,-1
 201 0 l 1,7,-1
 201 170 l 1,8,-1
 514 170 l 1,9,-1
 514 1323 l 1,10,-1
 201 1323 l 1,11,-1
 201 1493 l 1,0,-1
EndSplineSet
EndChar
StartChar: J
Encoding: 74 74 45
Width: 1233
Flags: W
Fore
109 61 m 1,0,-1
 109 297 l 1,1,2
 200 216 200 216 297 175.5 c 128,-1,3
 394 135 394 135 498 135 c 0,4,5
 641 135 641 135 697.5 209.5 c 128,-1,6
 754 284 754 284 754 487 c 2,7,-1
 754 1323 l 1,8,-1
 373 1323 l 1,9,-1
 373 1493 l 1,10,-1
 956 1493 l 1,11,-1
 956 487 l 2,12,13
 956 205 956 205 850.5 88 c 128,-1,14
 745 -29 745 -29 498 -29 c 0,15,16
 402 -29 402 -29 307 -7 c 128,-1,17
 212 15 212 15 109 61 c 1,0,-1
EndSplineSet
EndChar
StartChar: K
Encoding: 75 75 46
Width: 1233
Flags: W
Fore
137 1493 m 1,0,-1
 340 1493 l 1,1,-1
 340 829 l 1,2,-1
 971 1493 l 1,3,-1
 1208 1493 l 1,4,-1
 627 883 l 1,5,-1
 1225 0 l 1,6,-1
 981 0 l 1,7,-1
 494 748 l 1,8,-1
 340 584 l 1,9,-1
 340 0 l 1,10,-1
 137 0 l 1,11,-1
 137 1493 l 1,0,-1
EndSplineSet
EndChar
StartChar: L
Encoding: 76 76 47
Width: 1233
Flags: W
Fore
215 1493 m 1,0,-1
 418 1493 l 1,1,-1
 418 170 l 1,2,-1
 1139 170 l 1,3,-1
 1139 0 l 1,4,-1
 215 0 l 1,5,-1
 215 1493 l 1,0,-1
EndSplineSet
EndChar
StartChar: M
Encoding: 77 77 48
Width: 1233
Flags: W
Fore
86 1493 m 1,0,-1
 356 1493 l 1,1,-1
 614 733 l 1,2,-1
 874 1493 l 1,3,-1
 1145 1493 l 1,4,-1
 1145 0 l 1,5,-1
 958 0 l 1,6,-1
 958 1319 l 1,7,-1
 692 532 l 1,8,-1
 539 532 l 1,9,-1
 272 1319 l 1,10,-1
 272 0 l 1,11,-1
 86 0 l 1,12,-1
 86 1493 l 1,0,-1
EndSplineSet
EndChar
StartChar: N
Encoding: 78 78 49
Width: 1233
Flags: W
Fore
139 1493 m 1,0,-1
 395 1493 l 1,1,-1
 899 264 l 1,2,-1
 899 1493 l 1,3,-1
 1094 1493 l 1,4,-1
 1094 0 l 1,5,-1
 838 0 l 1,6,-1
 334 1229 l 1,7,-1
 334 0 l 1,8,-1
 139 0 l 1,9,-1
 139 1493 l 1,0,-1
EndSplineSet
EndChar
StartChar: O
Encoding: 79 79 50
Width: 1233
Flags: W
Fore
905 745 m 0,0,1
 905 1074 905 1074 837.5 1215 c 128,-1,2
 770 1356 770 1356 616 1356 c 0,3,4
 463 1356 463 1356 395.5 1215 c 128,-1,5
 328 1074 328 1074 328 745 c 0,6,7
 328 417 328 417 395.5 276 c 128,-1,8
 463 135 463 135 616 135 c 0,9,10
 770 135 770 135 837.5 275.5 c 128,-1,11
 905 416 905 416 905 745 c 0,0,1
1116 745 m 0,12,13
 1116 355 1116 355 992.5 163 c 128,-1,14
 869 -29 869 -29 616 -29 c 0,15,16
 363 -29 363 -29 240 162 c 128,-1,17
 117 353 117 353 117 745 c 0,18,19
 117 1136 117 1136 240.5 1328 c 128,-1,20
 364 1520 364 1520 616 1520 c 0,21,22
 869 1520 869 1520 992.5 1328 c 128,-1,23
 1116 1136 1116 1136 1116 745 c 0,12,13
EndSplineSet
EndChar
StartChar: P
Encoding: 80 80 51
Width: 1233
Flags: W
Fore
399 1327 m 1,0,-1
 399 766 l 1,1,-1
 633 766 l 2,2,3
 773 766 773 766 851.5 840 c 128,-1,4
 930 914 930 914 930 1047 c 0,5,6
 930 1180 930 1180 852 1253.5 c 128,-1,7
 774 1327 774 1327 633 1327 c 2,8,-1
 399 1327 l 1,0,-1
197 1493 m 1,9,-1
 633 1493 l 2,10,11
 883 1493 883 1493 1012 1379.5 c 128,-1,12
 1141 1266 1141 1266 1141 1047 c 0,13,14
 1141 826 1141 826 1012.5 713 c 128,-1,15
 884 600 884 600 633 600 c 2,16,-1
 399 600 l 1,17,-1
 399 0 l 1,18,-1
 197 0 l 1,19,-1
 197 1493 l 1,9,-1
EndSplineSet
EndChar
StartChar: Q
Encoding: 81 81 52
Width: 1233
Flags: W
Fore
655 -27 m 1,0,1
 648 -27 648 -27 635 -28 c 128,-1,2
 622 -29 622 -29 614 -29 c 0,3,4
 364 -29 364 -29 240.5 163 c 128,-1,5
 117 355 117 355 117 745 c 0,6,7
 117 1136 117 1136 240.5 1328 c 128,-1,8
 364 1520 364 1520 616 1520 c 0,9,10
 869 1520 869 1520 992.5 1328 c 128,-1,11
 1116 1136 1116 1136 1116 745 c 0,12,13
 1116 451 1116 451 1047.5 271.5 c 128,-1,14
 979 92 979 92 840 20 c 1,15,-1
 1040 -170 l 1,16,-1
 889 -270 l 1,17,-1
 655 -27 l 1,0,1
905 745 m 0,18,19
 905 1074 905 1074 837.5 1215 c 128,-1,20
 770 1356 770 1356 616 1356 c 0,21,22
 463 1356 463 1356 395.5 1215 c 128,-1,23
 328 1074 328 1074 328 745 c 0,24,25
 328 417 328 417 395.5 276 c 128,-1,26
 463 135 463 135 616 135 c 0,27,28
 770 135 770 135 837.5 275.5 c 128,-1,29
 905 416 905 416 905 745 c 0,18,19
EndSplineSet
EndChar
StartChar: R
Encoding: 82 82 53
Width: 1233
Flags: W
Fore
760 705 m 1,0,1
 838 685 838 685 893 629.5 c 128,-1,2
 948 574 948 574 1030 408 c 2,3,-1
 1233 0 l 1,4,-1
 1016 0 l 1,5,-1
 838 377 l 1,6,7
 761 538 761 538 699.5 584.5 c 128,-1,8
 638 631 638 631 539 631 c 2,9,-1
 346 631 l 1,10,-1
 346 0 l 1,11,-1
 143 0 l 1,12,-1
 143 1493 l 1,13,-1
 559 1493 l 2,14,15
 805 1493 805 1493 936 1382 c 128,-1,16
 1067 1271 1067 1271 1067 1061 c 0,17,18
 1067 913 1067 913 986.5 819.5 c 128,-1,19
 906 726 906 726 760 705 c 1,0,1
346 1327 m 1,20,-1
 346 797 l 1,21,-1
 567 797 l 2,22,23
 712 797 712 797 783 862 c 128,-1,24
 854 927 854 927 854 1061 c 0,25,26
 854 1190 854 1190 778.5 1258.5 c 128,-1,27
 703 1327 703 1327 559 1327 c 2,28,-1
 346 1327 l 1,20,-1
EndSplineSet
EndChar
StartChar: S
Encoding: 83 83 54
Width: 1233
Flags: W
Fore
1012 1442 m 1,0,-1
 1012 1237 l 1,1,2
 920 1296 920 1296 827.5 1326 c 128,-1,3
 735 1356 735 1356 641 1356 c 0,4,5
 498 1356 498 1356 415 1289.5 c 128,-1,6
 332 1223 332 1223 332 1110 c 0,7,8
 332 1011 332 1011 386.5 959 c 128,-1,9
 441 907 441 907 590 872 c 2,10,-1
 696 848 l 2,11,12
 906 799 906 799 1002 694 c 128,-1,13
 1098 589 1098 589 1098 408 c 0,14,15
 1098 195 1098 195 966 83 c 128,-1,16
 834 -29 834 -29 582 -29 c 0,17,18
 477 -29 477 -29 371 -6.5 c 128,-1,19
 265 16 265 16 158 61 c 1,20,-1
 158 276 l 1,21,22
 273 203 273 203 375.5 169 c 128,-1,23
 478 135 478 135 582 135 c 0,24,25
 735 135 735 135 820 203.5 c 128,-1,26
 905 272 905 272 905 395 c 0,27,28
 905 507 905 507 846.5 566 c 128,-1,29
 788 625 788 625 643 657 c 2,30,-1
 535 682 l 2,31,32
 327 729 327 729 233 824 c 128,-1,33
 139 919 139 919 139 1079 c 0,34,35
 139 1279 139 1279 273.5 1399.5 c 128,-1,36
 408 1520 408 1520 631 1520 c 0,37,38
 717 1520 717 1520 812 1500.5 c 128,-1,39
 907 1481 907 1481 1012 1442 c 1,0,-1
EndSplineSet
EndChar
StartChar: T
Encoding: 84 84 55
Width: 1233
Flags: W
Fore
47 1493 m 1,0,-1
 1186 1493 l 1,1,-1
 1186 1323 l 1,2,-1
 719 1323 l 1,3,-1
 719 0 l 1,4,-1
 516 0 l 1,5,-1
 516 1323 l 1,6,-1
 47 1323 l 1,7,-1
 47 1493 l 1,0,-1
EndSplineSet
EndChar
StartChar: U
Encoding: 85 85 56
Width: 1233
Flags: W
Fore
147 573 m 2,0,-1
 147 1493 l 1,1,-1
 350 1493 l 1,2,-1
 350 481 l 2,3,4
 350 372 350 372 356 325.5 c 128,-1,5
 362 279 362 279 377 254 c 1,6,7
 409 195 409 195 469.5 165 c 128,-1,8
 530 135 530 135 616 135 c 0,9,10
 703 135 703 135 763 165 c 128,-1,11
 823 195 823 195 856 254 c 0,12,13
 871 279 871 279 877 325 c 128,-1,14
 883 371 883 371 883 479 c 2,15,-1
 883 573 l 1,16,-1
 883 1493 l 1,17,-1
 1085 1493 l 1,18,-1
 1085 573 l 2,19,20
 1085 344 1085 344 1056.5 247.5 c 128,-1,21
 1028 151 1028 151 958 88 c 0,22,23
 892 29 892 29 807 0 c 128,-1,24
 722 -29 722 -29 616 -29 c 0,25,26
 511 -29 511 -29 426 0 c 128,-1,27
 341 29 341 29 274 88 c 0,28,29
 205 150 205 150 176 248.5 c 128,-1,30
 147 347 147 347 147 573 c 2,0,-1
EndSplineSet
EndChar
StartChar: V
Encoding: 86 86 57
Width: 1233
Flags: W
Fore
616 170 m 1,0,-1
 967 1493 l 1,1,-1
 1176 1493 l 1,2,-1
 739 0 l 1,3,-1
 494 0 l 1,4,-1
 57 1493 l 1,5,-1
 266 1493 l 1,6,-1
 616 170 l 1,0,-1
EndSplineSet
EndChar
StartChar: W
Encoding: 87 87 58
Width: 1233
Flags: W
Fore
0 1493 m 1,0,-1
 197 1493 l 1,1,-1
 340 281 l 1,2,-1
 510 1083 l 1,3,-1
 721 1083 l 1,4,-1
 893 279 l 1,5,-1
 1036 1493 l 1,6,-1
 1233 1493 l 1,7,-1
 1010 0 l 1,8,-1
 819 0 l 1,9,-1
 616 887 l 1,10,-1
 414 0 l 1,11,-1
 223 0 l 1,12,-1
 0 1493 l 1,0,-1
EndSplineSet
EndChar
StartChar: X
Encoding: 88 88 59
Width: 1233
Flags: W
Fore
86 1493 m 1,0,-1
 303 1493 l 1,1,-1
 631 930 l 1,2,-1
 965 1493 l 1,3,-1
 1182 1493 l 1,4,-1
 735 791 l 1,5,-1
 1214 0 l 1,6,-1
 997 0 l 1,7,-1
 631 643 l 1,8,-1
 236 0 l 1,9,-1
 18 0 l 1,10,-1
 518 791 l 1,11,-1
 86 1493 l 1,0,-1
EndSplineSet
EndChar
StartChar: Y
Encoding: 89 89 60
Width: 1233
Flags: W
Fore
37 1493 m 1,0,-1
 252 1493 l 1,1,-1
 616 834 l 1,2,-1
 979 1493 l 1,3,-1
 1196 1493 l 1,4,-1
 717 670 l 1,5,-1
 717 0 l 1,6,-1
 514 0 l 1,7,-1
 514 670 l 1,8,-1
 37 1493 l 1,0,-1
EndSplineSet
EndChar
StartChar: Z
Encoding: 90 90 61
Width: 1233
Flags: W
Fore
178 1493 m 1,0,-1
 1147 1493 l 1,1,-1
 1147 1339 l 1,2,-1
 367 170 l 1,3,-1
 1169 170 l 1,4,-1
 1169 0 l 1,5,-1
 156 0 l 1,6,-1
 156 154 l 1,7,-1
 915 1323 l 1,8,-1
 178 1323 l 1,9,-1
 178 1493 l 1,0,-1
EndSplineSet
EndChar
StartChar: bracketleft
Encoding: 91 91 62
Width: 1233
Flags: W
Fore
463 1556 m 1,0,-1
 887 1556 l 1,1,-1
 887 1413 l 1,2,-1
 647 1413 l 1,3,-1
 647 -127 l 1,4,-1
 887 -127 l 1,5,-1
 887 -270 l 1,6,-1
 463 -270 l 1,7,-1
 463 1556 l 1,0,-1
EndSplineSet
EndChar
StartChar: backslash
Encoding: 92 92 63
Width: 1233
Flags: W
Fore
293 1493 m 1,0,-1
 1079 -190 l 1,1,-1
 889 -190 l 1,2,-1
 102 1493 l 1,3,-1
 293 1493 l 1,0,-1
EndSplineSet
EndChar
StartChar: bracketright
Encoding: 93 93 64
Width: 1233
Flags: W
Fore
770 1556 m 1,0,-1
 770 -270 l 1,1,-1
 346 -270 l 1,2,-1
 346 -127 l 1,3,-1
 586 -127 l 1,4,-1
 586 1413 l 1,5,-1
 346 1413 l 1,6,-1
 346 1556 l 1,7,-1
 770 1556 l 1,0,-1
EndSplineSet
EndChar
StartChar: asciicircum
Encoding: 94 94 65
Width: 1233
Flags: W
Fore
705 1493 m 1,0,-1
 1161 936 l 1,1,-1
 983 936 l 1,2,-1
 616 1331 l 1,3,-1
 250 936 l 1,4,-1
 72 936 l 1,5,-1
 528 1493 l 1,6,-1
 705 1493 l 1,0,-1
EndSplineSet
EndChar
StartChar: underscore
Encoding: 95 95 66
Width: 1233
Flags: W
Fore
1024 -403 m 1,0,-1
 1024 -483 l 1,1,-1
 0 -483 l 1,2,-1
 0 -403 l 1,3,-1
 1024 -403 l 1,0,-1
EndSplineSet
EndChar
StartChar: grave
Encoding: 96 96 67
Width: 1233
Flags: W
Fore
477 1638 m 1,0,-1
 758 1262 l 1,1,-1
 604 1262 l 1,2,-1
 279 1638 l 1,3,-1
 477 1638 l 1,0,-1
EndSplineSet
EndChar
StartChar: a
Encoding: 97 97 68
Width: 1233
Flags: W
Fore
702 563 m 1,0,-1
 641 563 l 2,1,2
 480 563 480 563 398.5 506.5 c 128,-1,3
 317 450 317 450 317 338 c 0,4,5
 317 237 317 237 378 181 c 128,-1,6
 439 125 439 125 547 125 c 0,7,8
 699 125 699 125 786 230.5 c 128,-1,9
 873 336 873 336 874 522 c 1,10,-1
 874 563 l 1,11,-1
 702 563 l 1,0,-1
1059 639 m 2,12,-1
 1059 0 l 1,13,-1
 874 0 l 1,14,-1
 874 166 l 1,15,16
 815 66 815 66 725.5 18.5 c 128,-1,17
 636 -29 636 -29 508 -29 c 0,18,19
 337 -29 337 -29 235 67.5 c 128,-1,20
 133 164 133 164 133 326 c 0,21,22
 133 513 133 513 258.5 610 c 128,-1,23
 384 707 384 707 627 707 c 2,24,-1
 874 707 l 1,25,-1
 874 736 l 1,26,27
 873 870 873 870 806 930.5 c 128,-1,28
 739 991 739 991 592 991 c 0,29,30
 498 991 498 991 402 964 c 128,-1,31
 306 937 306 937 215 885 c 1,32,-1
 215 1069 l 1,33,34
 317 1108 317 1108 410.5 1127.5 c 128,-1,35
 504 1147 504 1147 592 1147 c 0,36,37
 731 1147 731 1147 829.5 1106 c 128,-1,38
 928 1065 928 1065 989 983 c 0,39,40
 1027 933 1027 933 1043 859.5 c 128,-1,41
 1059 786 1059 786 1059 639 c 2,12,-1
EndSplineSet
EndChar
StartChar: b
Encoding: 98 98 69
Width: 1233
Flags: W
Fore
918 559 m 0,0,1
 918 773 918 773 850 882 c 128,-1,2
 782 991 782 991 649 991 c 0,3,4
 515 991 515 991 446 881.5 c 128,-1,5
 377 772 377 772 377 559 c 0,6,7
 377 347 377 347 446 237 c 128,-1,8
 515 127 515 127 649 127 c 0,9,10
 782 127 782 127 850 236 c 128,-1,11
 918 345 918 345 918 559 c 0,0,1
377 977 m 1,12,13
 421 1059 421 1059 498.5 1103 c 128,-1,14
 576 1147 576 1147 678 1147 c 0,15,16
 880 1147 880 1147 996 991.5 c 128,-1,17
 1112 836 1112 836 1112 563 c 0,18,19
 1112 286 1112 286 995.5 128.5 c 128,-1,20
 879 -29 879 -29 676 -29 c 0,21,22
 576 -29 576 -29 499.5 14.5 c 128,-1,23
 423 58 423 58 377 141 c 1,24,-1
 377 0 l 1,25,-1
 193 0 l 1,26,-1
 193 1556 l 1,27,-1
 377 1556 l 1,28,-1
 377 977 l 1,12,13
EndSplineSet
EndChar
StartChar: c
Encoding: 99 99 70
Width: 1233
Flags: W
Fore
1061 57 m 1,0,1
 987 14 987 14 908.5 -7.5 c 128,-1,2
 830 -29 830 -29 748 -29 c 0,3,4
 488 -29 488 -29 341.5 127 c 128,-1,5
 195 283 195 283 195 559 c 0,6,7
 195 835 195 835 341.5 991 c 128,-1,8
 488 1147 488 1147 748 1147 c 0,9,10
 829 1147 829 1147 906 1126 c 128,-1,11
 983 1105 983 1105 1061 1061 c 1,12,-1
 1061 868 l 1,13,14
 988 933 988 933 914.5 962 c 128,-1,15
 841 991 841 991 748 991 c 0,16,17
 575 991 575 991 482 879 c 128,-1,18
 389 767 389 767 389 559 c 0,19,20
 389 352 389 352 482.5 239.5 c 128,-1,21
 576 127 576 127 748 127 c 0,22,23
 844 127 844 127 920 156.5 c 128,-1,24
 996 186 996 186 1061 248 c 1,25,-1
 1061 57 l 1,0,1
EndSplineSet
EndChar
StartChar: d
Encoding: 100 100 71
Width: 1233
Flags: W
Fore
858 977 m 1,0,-1
 858 1556 l 1,1,-1
 1042 1556 l 1,2,-1
 1042 0 l 1,3,-1
 858 0 l 1,4,-1
 858 141 l 1,5,6
 812 58 812 58 735.5 14.5 c 128,-1,7
 659 -29 659 -29 559 -29 c 0,8,9
 356 -29 356 -29 239.5 128.5 c 128,-1,10
 123 286 123 286 123 563 c 0,11,12
 123 836 123 836 240 991.5 c 128,-1,13
 357 1147 357 1147 559 1147 c 0,14,15
 660 1147 660 1147 737 1103.5 c 128,-1,16
 814 1060 814 1060 858 977 c 1,0,-1
317 559 m 0,17,18
 317 345 317 345 385 236 c 128,-1,19
 453 127 453 127 586 127 c 0,20,21
 719 127 719 127 788.5 237 c 128,-1,22
 858 347 858 347 858 559 c 0,23,24
 858 772 858 772 788.5 881.5 c 128,-1,25
 719 991 719 991 586 991 c 0,26,27
 453 991 453 991 385 882 c 128,-1,28
 317 773 317 773 317 559 c 0,17,18
EndSplineSet
EndChar
StartChar: e
Encoding: 101 101 72
Width: 1233
Flags: W
Fore
1112 606 m 2,0,-1
 1112 516 l 1,1,-1
 315 516 l 1,2,-1
 315 510 l 2,3,4
 315 327 315 327 410.5 227 c 128,-1,5
 506 127 506 127 680 127 c 0,6,7
 768 127 768 127 864 155 c 128,-1,8
 960 183 960 183 1069 240 c 1,9,-1
 1069 57 l 1,10,11
 964 14 964 14 866.5 -7.5 c 128,-1,12
 769 -29 769 -29 678 -29 c 0,13,14
 417 -29 417 -29 270 127.5 c 128,-1,15
 123 284 123 284 123 559 c 0,16,17
 123 827 123 827 267 987 c 128,-1,18
 411 1147 411 1147 651 1147 c 0,19,20
 865 1147 865 1147 988.5 1002 c 128,-1,21
 1112 857 1112 857 1112 606 c 2,0,-1
928 660 m 1,22,23
 924 822 924 822 851.5 906.5 c 128,-1,24
 779 991 779 991 643 991 c 0,25,26
 510 991 510 991 424 903 c 128,-1,27
 338 815 338 815 322 659 c 1,28,-1
 928 660 l 1,22,23
EndSplineSet
EndChar
StartChar: f
Encoding: 102 102 73
Width: 1233
Flags: W
Fore
1063 1556 m 1,0,-1
 1063 1403 l 1,1,-1
 854 1403 l 2,2,3
 755 1403 755 1403 716.5 1362.5 c 128,-1,4
 678 1322 678 1322 678 1219 c 2,5,-1
 678 1120 l 1,6,-1
 1063 1120 l 1,7,-1
 1063 977 l 1,8,-1
 678 977 l 1,9,-1
 678 0 l 1,10,-1
 494 0 l 1,11,-1
 494 977 l 1,12,-1
 195 977 l 1,13,-1
 195 1120 l 1,14,-1
 494 1120 l 1,15,-1
 494 1198 l 2,16,17
 494 1382 494 1382 578.5 1469 c 128,-1,18
 663 1556 663 1556 842 1556 c 2,19,-1
 1063 1556 l 1,0,-1
EndSplineSet
EndChar
StartChar: g
Encoding: 103 103 74
Width: 1233
Flags: W
Fore
858 569 m 0,0,1
 858 776 858 776 790.5 883.5 c 128,-1,2
 723 991 723 991 594 991 c 0,3,4
 459 991 459 991 388 883.5 c 128,-1,5
 317 776 317 776 317 569 c 0,6,7
 317 362 317 362 388.5 253.5 c 128,-1,8
 460 145 460 145 596 145 c 0,9,10
 723 145 723 145 790.5 254 c 128,-1,11
 858 363 858 363 858 569 c 0,0,1
1042 72 m 2,12,13
 1042 -180 1042 -180 923 -310 c 128,-1,14
 804 -440 804 -440 573 -440 c 0,15,16
 497 -440 497 -440 414 -426 c 128,-1,17
 331 -412 331 -412 248 -385 c 1,18,-1
 248 -203 l 1,19,20
 346 -249 346 -249 426 -271 c 128,-1,21
 506 -293 506 -293 573 -293 c 0,22,23
 722 -293 722 -293 790 -212 c 128,-1,24
 858 -131 858 -131 858 45 c 2,25,-1
 858 53 l 1,26,-1
 858 178 l 1,27,28
 814 84 814 84 738 38 c 128,-1,29
 662 -8 662 -8 553 -8 c 0,30,31
 357 -8 357 -8 240 149 c 128,-1,32
 123 306 123 306 123 569 c 0,33,34
 123 833 123 833 240 990 c 128,-1,35
 357 1147 357 1147 553 1147 c 0,36,37
 661 1147 661 1147 736 1104 c 128,-1,38
 811 1061 811 1061 858 971 c 1,39,-1
 858 1116 l 1,40,-1
 1042 1116 l 1,41,-1
 1042 72 l 2,12,13
EndSplineSet
EndChar
StartChar: h
Encoding: 104 104 75
Width: 1233
Flags: W
Fore
1051 694 m 2,0,-1
 1051 0 l 1,1,-1
 866 0 l 1,2,-1
 866 694 l 2,3,4
 866 845 866 845 813 916 c 128,-1,5
 760 987 760 987 647 987 c 0,6,7
 518 987 518 987 448.5 895.5 c 128,-1,8
 379 804 379 804 379 633 c 2,9,-1
 379 0 l 1,10,-1
 195 0 l 1,11,-1
 195 1556 l 1,12,-1
 379 1556 l 1,13,-1
 379 952 l 1,14,15
 428 1048 428 1048 512 1097.5 c 128,-1,16
 596 1147 596 1147 711 1147 c 0,17,18
 882 1147 882 1147 966.5 1034.5 c 128,-1,19
 1051 922 1051 922 1051 694 c 2,0,-1
EndSplineSet
EndChar
StartChar: i
Encoding: 105 105 76
Width: 1233
Flags: W
Fore
256 1120 m 1,0,-1
 727 1120 l 1,1,-1
 727 143 l 1,2,-1
 1092 143 l 1,3,-1
 1092 0 l 1,4,-1
 178 0 l 1,5,-1
 178 143 l 1,6,-1
 543 143 l 1,7,-1
 543 977 l 1,8,-1
 256 977 l 1,9,-1
 256 1120 l 1,0,-1
543 1556 m 1,10,-1
 727 1556 l 1,11,-1
 727 1323 l 1,12,-1
 543 1323 l 1,13,-1
 543 1556 l 1,10,-1
EndSplineSet
EndChar
StartChar: j
Encoding: 106 106 77
Width: 1233
Flags: W
Fore
600 -20 m 2,0,-1
 600 977 l 1,1,-1
 283 977 l 1,2,-1
 283 1120 l 1,3,-1
 784 1120 l 1,4,-1
 784 -20 l 2,5,6
 784 -215 784 -215 694.5 -320.5 c 128,-1,7
 605 -426 605 -426 440 -426 c 2,8,-1
 186 -426 l 1,9,-1
 186 -270 l 1,10,-1
 420 -270 l 2,11,12
 510 -270 510 -270 555 -207.5 c 128,-1,13
 600 -145 600 -145 600 -20 c 2,0,-1
600 1556 m 1,14,-1
 784 1556 l 1,15,-1
 784 1323 l 1,16,-1
 600 1323 l 1,17,-1
 600 1556 l 1,14,-1
EndSplineSet
EndChar
StartChar: k
Encoding: 107 107 78
Width: 1233
Flags: W
Fore
236 1556 m 1,0,-1
 426 1556 l 1,1,-1
 426 655 l 1,2,-1
 909 1120 l 1,3,-1
 1133 1120 l 1,4,-1
 692 698 l 1,5,-1
 1202 0 l 1,6,-1
 977 0 l 1,7,-1
 563 578 l 1,8,-1
 426 449 l 1,9,-1
 426 0 l 1,10,-1
 236 0 l 1,11,-1
 236 1556 l 1,0,-1
EndSplineSet
EndChar
StartChar: l
Encoding: 108 108 79
Width: 1233
Flags: W
Fore
639 406 m 2,0,1
 639 282 639 282 684.5 219 c 128,-1,2
 730 156 730 156 819 156 c 2,3,-1
 1034 156 l 1,4,-1
 1034 0 l 1,5,-1
 801 0 l 2,6,7
 636 0 636 0 545.5 106 c 128,-1,8
 455 212 455 212 455 406 c 2,9,-1
 455 1423 l 1,10,-1
 160 1423 l 1,11,-1
 160 1567 l 1,12,-1
 639 1567 l 1,13,-1
 639 406 l 2,0,1
EndSplineSet
EndChar
StartChar: m
Encoding: 109 109 80
Width: 1233
Flags: W
Fore
676 1006 m 1,0,1
 710 1078 710 1078 762.5 1112.5 c 128,-1,2
 815 1147 815 1147 889 1147 c 0,3,4
 1024 1147 1024 1147 1079.5 1042.5 c 128,-1,5
 1135 938 1135 938 1135 649 c 2,6,-1
 1135 0 l 1,7,-1
 967 0 l 1,8,-1
 967 641 l 2,9,10
 967 878 967 878 940.5 935.5 c 128,-1,11
 914 993 914 993 844 993 c 0,12,13
 764 993 764 993 734.5 931.5 c 128,-1,14
 705 870 705 870 705 641 c 2,15,-1
 705 0 l 1,16,-1
 537 0 l 1,17,-1
 537 641 l 2,18,19
 537 881 537 881 508.5 937 c 128,-1,20
 480 993 480 993 406 993 c 0,21,22
 333 993 333 993 304.5 931.5 c 128,-1,23
 276 870 276 870 276 641 c 2,24,-1
 276 0 l 1,25,-1
 109 0 l 1,26,-1
 109 1120 l 1,27,-1
 276 1120 l 1,28,-1
 276 1024 l 1,29,30
 309 1084 309 1084 358.5 1115.5 c 128,-1,31
 408 1147 408 1147 471 1147 c 0,32,33
 547 1147 547 1147 597.5 1112 c 128,-1,34
 648 1077 648 1077 676 1006 c 1,0,1
EndSplineSet
EndChar
StartChar: n
Encoding: 110 110 81
Width: 1233
Flags: W
Fore
1051 694 m 2,0,-1
 1051 0 l 1,1,-1
 866 0 l 1,2,-1
 866 694 l 2,3,4
 866 845 866 845 813 916 c 128,-1,5
 760 987 760 987 647 987 c 0,6,7
 518 987 518 987 448.5 895.5 c 128,-1,8
 379 804 379 804 379 633 c 2,9,-1
 379 0 l 1,10,-1
 195 0 l 1,11,-1
 195 1120 l 1,12,-1
 379 1120 l 1,13,-1
 379 952 l 1,14,15
 428 1048 428 1048 512 1097.5 c 128,-1,16
 596 1147 596 1147 711 1147 c 0,17,18
 882 1147 882 1147 966.5 1034.5 c 128,-1,19
 1051 922 1051 922 1051 694 c 2,0,-1
EndSplineSet
EndChar
StartChar: o
Encoding: 111 111 82
Width: 1233
Flags: W
Fore
616 991 m 4,0,1
 476 991 476 991 404 882 c 132,-1,2
 332 773 332 773 332 559 c 4,3,4
 332 346 332 346 404 236.5 c 132,-1,5
 476 127 476 127 616 127 c 4,6,7
 757 127 757 127 829 236.5 c 132,-1,8
 901 346 901 346 901 559 c 4,9,10
 901 773 901 773 829 882 c 132,-1,11
 757 991 757 991 616 991 c 4,0,1
616 1147 m 4,12,13
 849 1147 849 1147 972.5 996 c 132,-1,14
 1096 845 1096 845 1096 559 c 4,15,16
 1096 272 1096 272 973 121.5 c 132,-1,17
 850 -29 850 -29 616 -29 c 4,18,19
 383 -29 383 -29 260 121.5 c 132,-1,20
 137 272 137 272 137 559 c 4,21,22
 137 845 137 845 260 996 c 132,-1,23
 383 1147 383 1147 616 1147 c 4,12,13
EndSplineSet
EndChar
StartChar: p
Encoding: 112 112 83
Width: 1233
Flags: W
Fore
375 141 m 1,0,-1
 375 -426 l 1,1,-1
 190 -426 l 1,2,-1
 190 1120 l 1,3,-1
 375 1120 l 1,4,-1
 375 977 l 1,5,6
 421 1060 421 1060 497.5 1103.5 c 128,-1,7
 574 1147 574 1147 674 1147 c 0,8,9
 877 1147 877 1147 992.5 990 c 128,-1,10
 1108 833 1108 833 1108 555 c 0,11,12
 1108 282 1108 282 992 126.5 c 128,-1,13
 876 -29 876 -29 674 -29 c 0,14,15
 572 -29 572 -29 495.5 14.5 c 128,-1,16
 419 58 419 58 375 141 c 1,0,-1
915 559 m 0,17,18
 915 773 915 773 847.5 882 c 128,-1,19
 780 991 780 991 647 991 c 0,20,21
 513 991 513 991 444 881.5 c 128,-1,22
 375 772 375 772 375 559 c 0,23,24
 375 347 375 347 444 237 c 128,-1,25
 513 127 513 127 647 127 c 0,26,27
 780 127 780 127 847.5 236 c 128,-1,28
 915 345 915 345 915 559 c 0,17,18
EndSplineSet
EndChar
StartChar: q
Encoding: 113 113 84
Width: 1233
Flags: W
Fore
332 555 m 0,0,1
 332 341 332 341 399.5 232 c 128,-1,2
 467 123 467 123 600 123 c 0,3,4
 733 123 733 123 801.5 232.5 c 128,-1,5
 870 342 870 342 870 555 c 0,6,7
 870 768 870 768 801.5 877.5 c 128,-1,8
 733 987 733 987 600 987 c 0,9,10
 467 987 467 987 399.5 878 c 128,-1,11
 332 769 332 769 332 555 c 0,0,1
870 139 m 1,12,13
 825 56 825 56 748.5 11.5 c 128,-1,14
 672 -33 672 -33 571 -33 c 0,15,16
 370 -33 370 -33 253.5 122.5 c 128,-1,17
 137 278 137 278 137 551 c 0,18,19
 137 829 137 829 253 986 c 128,-1,20
 369 1143 369 1143 571 1143 c 0,21,22
 671 1143 671 1143 747.5 1099.5 c 128,-1,23
 824 1056 824 1056 870 973 c 1,24,-1
 870 1116 l 1,25,-1
 1055 1116 l 1,26,-1
 1055 -430 l 1,27,-1
 870 -430 l 1,28,-1
 870 139 l 1,12,13
EndSplineSet
EndChar
StartChar: r
Encoding: 114 114 85
Width: 1233
Flags: W
Fore
1155 889 m 1,0,1
 1096 935 1096 935 1035 956 c 128,-1,2
 974 977 974 977 901 977 c 0,3,4
 729 977 729 977 638 869 c 128,-1,5
 547 761 547 761 547 557 c 2,6,-1
 547 0 l 1,7,-1
 362 0 l 1,8,-1
 362 1120 l 1,9,-1
 547 1120 l 1,10,-1
 547 901 l 1,11,12
 593 1020 593 1020 688.5 1083.5 c 128,-1,13
 784 1147 784 1147 915 1147 c 0,14,15
 983 1147 983 1147 1042 1130 c 128,-1,16
 1101 1113 1101 1113 1155 1077 c 1,17,-1
 1155 889 l 1,0,1
EndSplineSet
EndChar
StartChar: s
Encoding: 115 115 86
Width: 1233
Flags: W
Fore
973 1081 m 1,0,-1
 973 901 l 1,1,2
 894 947 894 947 814 970 c 128,-1,3
 734 993 734 993 651 993 c 0,4,5
 526 993 526 993 464.5 952.5 c 128,-1,6
 403 912 403 912 403 829 c 0,7,8
 403 754 403 754 449 717 c 128,-1,9
 495 680 495 680 678 645 c 2,10,-1
 752 631 l 2,11,12
 889 605 889 605 959.5 527 c 128,-1,13
 1030 449 1030 449 1030 324 c 0,14,15
 1030 158 1030 158 912 64.5 c 128,-1,16
 794 -29 794 -29 584 -29 c 0,17,18
 501 -29 501 -29 410 -11.5 c 128,-1,19
 319 6 319 6 213 41 c 1,20,-1
 213 231 l 1,21,22
 316 178 316 178 410 151.5 c 128,-1,23
 504 125 504 125 588 125 c 0,24,25
 710 125 710 125 777 174.5 c 128,-1,26
 844 224 844 224 844 313 c 0,27,28
 844 441 844 441 599 490 c 2,29,-1
 591 492 l 1,30,-1
 522 506 l 2,31,32
 363 537 363 537 290 610.5 c 128,-1,33
 217 684 217 684 217 811 c 0,34,35
 217 972 217 972 326 1059.5 c 128,-1,36
 435 1147 435 1147 637 1147 c 0,37,38
 727 1147 727 1147 810 1130.5 c 128,-1,39
 893 1114 893 1114 973 1081 c 1,0,-1
EndSplineSet
EndChar
StartChar: t
Encoding: 116 116 87
Width: 1233
Flags: W
Fore
614 1438 m 1,0,-1
 614 1120 l 1,1,-1
 1032 1120 l 1,2,-1
 1032 977 l 1,3,-1
 614 977 l 1,4,-1
 614 369 l 2,5,6
 614 245 614 245 661 196 c 128,-1,7
 708 147 708 147 825 147 c 2,8,-1
 1032 147 l 1,9,-1
 1032 0 l 1,10,-1
 807 0 l 2,11,12
 600 0 600 0 515 83 c 128,-1,13
 430 166 430 166 430 369 c 2,14,-1
 430 977 l 1,15,-1
 131 977 l 1,16,-1
 131 1120 l 1,17,-1
 430 1120 l 1,18,-1
 430 1438 l 1,19,-1
 614 1438 l 1,0,-1
EndSplineSet
EndChar
StartChar: u
Encoding: 117 117 88
Width: 1233
Flags: W
Fore
195 424 m 2,0,-1
 195 1118 l 1,1,-1
 379 1118 l 1,2,-1
 379 424 l 2,3,4
 379 273 379 273 432.5 202 c 128,-1,5
 486 131 486 131 598 131 c 0,6,7
 728 131 728 131 797 222.5 c 128,-1,8
 866 314 866 314 866 485 c 2,9,-1
 866 1118 l 1,10,-1
 1051 1118 l 1,11,-1
 1051 0 l 1,12,-1
 866 0 l 1,13,-1
 866 168 l 1,14,15
 817 71 817 71 732.5 21 c 128,-1,16
 648 -29 648 -29 535 -29 c 0,17,18
 363 -29 363 -29 279 83.5 c 128,-1,19
 195 196 195 196 195 424 c 2,0,-1
EndSplineSet
EndChar
StartChar: v
Encoding: 118 118 89
Width: 1233
Flags: W
Fore
100 1120 m 1,0,-1
 291 1120 l 1,1,-1
 616 180 l 1,2,-1
 942 1120 l 1,3,-1
 1133 1120 l 1,4,-1
 735 0 l 1,5,-1
 498 0 l 1,6,-1
 100 1120 l 1,0,-1
EndSplineSet
EndChar
StartChar: w
Encoding: 119 119 90
Width: 1233
Flags: W
Fore
0 1120 m 1,0,-1
 182 1120 l 1,1,-1
 377 215 l 1,2,-1
 537 793 l 1,3,-1
 694 793 l 1,4,-1
 856 215 l 1,5,-1
 1051 1120 l 1,6,-1
 1233 1120 l 1,7,-1
 971 0 l 1,8,-1
 795 0 l 1,9,-1
 616 614 l 1,10,-1
 438 0 l 1,11,-1
 262 0 l 1,12,-1
 0 1120 l 1,0,-1
EndSplineSet
EndChar
StartChar: x
Encoding: 120 120 91
Width: 1233
Flags: W
Fore
1118 1120 m 1,0,-1
 717 584 l 1,1,-1
 1157 0 l 1,2,-1
 944 0 l 1,3,-1
 616 449 l 1,4,-1
 289 0 l 1,5,-1
 76 0 l 1,6,-1
 516 584 l 1,7,-1
 115 1120 l 1,8,-1
 319 1120 l 1,9,-1
 616 715 l 1,10,-1
 911 1120 l 1,11,-1
 1118 1120 l 1,0,-1
EndSplineSet
EndChar
StartChar: y
Encoding: 121 121 92
Width: 1233
Flags: W
Fore
858 360 m 1,0,1
 812 243 812 243 741 52 c 0,2,3
 642 -212 642 -212 608 -270 c 0,4,5
 562 -348 562 -348 493 -387 c 128,-1,6
 424 -426 424 -426 332 -426 c 2,7,-1
 184 -426 l 1,8,-1
 184 -272 l 1,9,-1
 293 -272 l 2,10,11
 374 -272 374 -272 420 -225 c 128,-1,12
 466 -178 466 -178 537 18 c 1,13,-1
 104 1120 l 1,14,-1
 299 1120 l 1,15,-1
 631 244 l 1,16,-1
 958 1120 l 1,17,-1
 1153 1120 l 1,18,-1
 858 360 l 1,0,1
EndSplineSet
EndChar
StartChar: z
Encoding: 122 122 93
Width: 1233
Flags: W
Fore
227 1122 m 1,0,-1
 1040 1122 l 1,1,-1
 1040 954 l 1,2,-1
 397 150 l 1,3,-1
 1040 150 l 1,4,-1
 1040 0 l 1,5,-1
 203 0 l 1,6,-1
 203 170 l 1,7,-1
 846 975 l 1,8,-1
 227 975 l 1,9,-1
 227 1122 l 1,0,-1
EndSplineSet
EndChar
StartChar: braceleft
Encoding: 123 123 94
Width: 1233
Flags: W
Fore
1012 -190 m 1,0,-1
 1012 -334 l 1,1,-1
 948 -334 l 2,2,3
 699 -334 699 -334 614.5 -260 c 128,-1,4
 530 -186 530 -186 530 35 c 2,5,-1
 530 274 l 2,6,7
 530 425 530 425 476.5 483 c 128,-1,8
 423 541 423 541 283 541 c 2,9,-1
 221 541 l 1,10,-1
 221 684 l 1,11,-1
 283 684 l 2,12,13
 424 684 424 684 477 741 c 128,-1,14
 530 798 530 798 530 948 c 2,15,-1
 530 1188 l 2,16,17
 530 1409 530 1409 614.5 1482.5 c 128,-1,18
 699 1556 699 1556 948 1556 c 2,19,-1
 1012 1556 l 1,20,-1
 1012 1413 l 1,21,-1
 942 1413 l 2,22,23
 802 1413 802 1413 759.5 1369.5 c 128,-1,24
 717 1326 717 1326 717 1184 c 2,25,-1
 717 936 l 2,26,27
 717 779 717 779 671.5 708 c 128,-1,28
 626 637 626 637 516 612 c 1,29,30
 627 585 627 585 672 514 c 128,-1,31
 717 443 717 443 717 287 c 2,32,-1
 717 39 l 2,33,34
 717 -104 717 -104 759.5 -147 c 128,-1,35
 802 -190 802 -190 942 -190 c 2,36,-1
 1012 -190 l 1,0,-1
EndSplineSet
EndChar
StartChar: bar
Encoding: 124 124 95
Width: 1233
Flags: W
Fore
702 1565 m 1,0,-1
 702 -483 l 1,1,-1
 530 -483 l 1,2,-1
 530 1565 l 1,3,-1
 702 1565 l 1,0,-1
EndSplineSet
EndChar
StartChar: braceright
Encoding: 125 125 96
Width: 1233
Flags: W
Fore
221 -190 m 1,0,-1
 289 -190 l 2,1,2
 430 -190 430 -190 473 -146 c 128,-1,3
 516 -102 516 -102 516 39 c 2,4,-1
 516 287 l 2,5,6
 516 443 516 443 561 514 c 128,-1,7
 606 585 606 585 717 612 c 1,8,9
 607 637 607 637 561.5 708 c 128,-1,10
 516 779 516 779 516 936 c 2,11,-1
 516 1184 l 2,12,13
 516 1325 516 1325 473 1369 c 128,-1,14
 430 1413 430 1413 289 1413 c 2,15,-1
 221 1413 l 1,16,-1
 221 1556 l 1,17,-1
 283 1556 l 2,18,19
 532 1556 532 1556 616 1482.5 c 128,-1,20
 700 1409 700 1409 700 1188 c 2,21,-1
 700 948 l 2,22,23
 700 798 700 798 753.5 741 c 128,-1,24
 807 684 807 684 948 684 c 2,25,-1
 1012 684 l 1,26,-1
 1012 541 l 1,27,-1
 948 541 l 2,28,29
 807 541 807 541 753.5 483 c 128,-1,30
 700 425 700 425 700 274 c 2,31,-1
 700 35 l 2,32,33
 700 -186 700 -186 616 -260 c 128,-1,34
 532 -334 532 -334 283 -334 c 2,35,-1
 221 -334 l 1,36,-1
 221 -190 l 1,0,-1
EndSplineSet
EndChar
StartChar: asciitilde
Encoding: 126 126 97
Width: 1233
Flags: W
Fore
1145 780 m 1,0,-1
 1145 606 l 1,1,2
 1070 547 1070 547 998.5 519.5 c 128,-1,3
 927 492 927 492 848 492 c 0,4,5
 758 492 758 492 645 543 c 0,6,7
 623 553 623 553 612 557 c 0,8,9
 535 590 535 590 483.5 602 c 128,-1,10
 432 614 432 614 381 614 c 0,11,12
 302 614 302 614 231.5 584.5 c 128,-1,13
 161 555 161 555 88 492 c 1,14,-1
 88 666 l 1,15,16
 166 726 166 726 239 753 c 128,-1,17
 312 780 312 780 395 780 c 0,18,19
 448 780 448 780 498 769 c 128,-1,20
 548 758 548 758 622 727 c 0,21,22
 634 722 634 722 655 712 c 0,23,24
 771 657 771 657 864 657 c 0,25,26
 934 657 934 657 1002.5 687.5 c 128,-1,27
 1071 718 1071 718 1145 780 c 1,0,-1
EndSplineSet
EndChar
StartChar: exclamdown
Encoding: 161 161 163
Width: 1233
Flags: W
Fore
516 1239 m 1,0,-1
 516 1493 l 1,1,-1
 719 1493 l 1,2,-1
 719 1239 l 1,3,-1
 516 1239 l 1,0,-1
516 0 m 1,4,-1
 516 655 l 1,5,-1
 537 1012 l 1,6,-1
 698 1012 l 1,7,-1
 719 655 l 1,8,-1
 719 0 l 1,9,-1
 516 0 l 1,4,-1
EndSplineSet
EndChar
StartChar: cent
Encoding: 162 162 132
Width: 1233
Flags: W
Fore
1061 1077 m 1,0,-1
 1061 905 l 1,1,2
 994 945 994 945 929 967 c 128,-1,3
 864 989 864 989 801 993 c 1,4,-1
 801 123 l 1,5,6
 864 128 864 128 929.5 150.5 c 128,-1,7
 995 173 995 173 1061 213 c 1,8,-1
 1061 41 l 1,9,10
 988 10 988 10 923 -7 c 128,-1,11
 858 -24 858 -24 801 -27 c 1,12,-1
 801 -313 l 1,13,-1
 698 -313 l 1,14,-1
 698 -27 l 1,15,16
 473 -5 473 -5 343 151.5 c 128,-1,17
 213 308 213 308 213 559 c 0,18,19
 213 809 213 809 344.5 967.5 c 128,-1,20
 476 1126 476 1126 698 1145 c 1,21,-1
 698 1432 l 1,22,-1
 801 1432 l 1,23,-1
 801 1145 l 1,24,25
 858 1142 858 1142 923 1125 c 128,-1,26
 988 1108 988 1108 1061 1077 c 1,0,-1
698 127 m 1,27,-1
 698 991 l 1,28,29
 566 979 566 979 486 861 c 128,-1,30
 406 743 406 743 406 559 c 0,31,32
 406 375 406 375 486 257.5 c 128,-1,33
 566 140 566 140 698 127 c 1,27,-1
EndSplineSet
EndChar
StartChar: sterling
Encoding: 163 163 133
Width: 1233
Flags: W
Fore
1092 1462 m 1,0,-1
 1092 1278 l 1,1,2
 1030 1322 1030 1322 966.5 1344 c 128,-1,3
 903 1366 903 1366 836 1366 c 0,4,5
 702 1366 702 1366 638.5 1276.5 c 128,-1,6
 575 1187 575 1187 575 995 c 2,7,-1
 575 778 l 1,8,-1
 946 778 l 1,9,-1
 946 635 l 1,10,-1
 575 635 l 1,11,-1
 575 170 l 1,12,-1
 1112 170 l 1,13,-1
 1112 0 l 1,14,-1
 139 0 l 1,15,-1
 139 170 l 1,16,-1
 375 170 l 1,17,-1
 375 635 l 1,18,-1
 176 635 l 1,19,-1
 176 778 l 1,20,-1
 375 778 l 1,21,-1
 375 1016 l 2,22,23
 375 1270 375 1270 484.5 1395 c 128,-1,24
 594 1520 594 1520 817 1520 c 0,25,26
 882 1520 882 1520 950.5 1505.5 c 128,-1,27
 1019 1491 1019 1491 1092 1462 c 1,0,-1
EndSplineSet
EndChar
StartChar: currency
Encoding: 164 164 189
Width: 1233
Flags: W
Fore
868 643 m 0,0,1
 868 733 868 733 806 794.5 c 128,-1,2
 744 856 744 856 653 856 c 0,3,4
 563 856 563 856 500.5 794.5 c 128,-1,5
 438 733 438 733 438 643 c 0,6,7
 438 551 438 551 500.5 488.5 c 128,-1,8
 563 426 563 426 653 426 c 0,9,10
 744 426 744 426 806 489 c 128,-1,11
 868 552 868 552 868 643 c 0,0,1
844 924 m 1,12,-1
 1010 1090 l 1,13,-1
 1100 997 l 1,14,-1
 934 831 l 1,15,16
 964 782 964 782 978.5 735.5 c 128,-1,17
 993 689 993 689 993 641 c 0,18,19
 993 591 993 591 978 545.5 c 128,-1,20
 963 500 963 500 932 455 c 1,21,-1
 1100 289 l 1,22,-1
 1006 195 l 1,23,-1
 840 362 l 1,24,25
 794 331 794 331 748.5 316 c 128,-1,26
 703 301 703 301 653 301 c 0,27,28
 605 301 605 301 557 315.5 c 128,-1,29
 509 330 509 330 461 358 c 1,30,-1
 297 195 l 1,31,-1
 205 285 l 1,32,-1
 371 451 l 1,33,34
 340 502 340 502 325.5 548.5 c 128,-1,35
 311 595 311 595 311 641 c 0,36,37
 311 691 311 691 326.5 737.5 c 128,-1,38
 342 784 342 784 373 829 c 1,39,-1
 205 995 l 1,40,-1
 299 1090 l 1,41,-1
 465 922 l 1,42,43
 511 953 511 953 556.5 968 c 128,-1,44
 602 983 602 983 653 983 c 0,45,46
 699 983 699 983 746 968.5 c 128,-1,47
 793 954 793 954 844 924 c 1,12,-1
EndSplineSet
EndChar
StartChar: yen
Encoding: 165 165 150
Width: 1233
Flags: W
Fore
37 1493 m 1,0,-1
 252 1493 l 1,1,-1
 616 834 l 1,2,-1
 979 1493 l 1,3,-1
 1196 1493 l 1,4,-1
 866 932 l 1,5,-1
 1118 932 l 1,6,-1
 1118 821 l 1,7,-1
 803 821 l 1,8,-1
 717 670 l 1,9,-1
 717 635 l 1,10,-1
 1118 635 l 1,11,-1
 1118 524 l 1,12,-1
 717 524 l 1,13,-1
 717 0 l 1,14,-1
 514 0 l 1,15,-1
 514 524 l 1,16,-1
 115 524 l 1,17,-1
 115 635 l 1,18,-1
 514 635 l 1,19,-1
 514 670 l 1,20,-1
 424 821 l 1,21,-1
 115 821 l 1,22,-1
 115 932 l 1,23,-1
 358 932 l 1,24,-1
 37 1493 l 1,0,-1
EndSplineSet
EndChar
StartChar: brokenbar
Encoding: 166 166 231
Width: 1233
Flags: W
Fore
702 1432 m 1,0,-1
 702 674 l 1,1,-1
 530 674 l 1,2,-1
 530 1432 l 1,3,-1
 702 1432 l 1,0,-1
702 408 m 1,4,-1
 702 -350 l 1,5,-1
 530 -350 l 1,6,-1
 530 408 l 1,7,-1
 702 408 l 1,4,-1
EndSplineSet
EndChar
StartChar: section
Encoding: 167 167 134
Width: 1233
Flags: W
Fore
936 1462 m 1,0,-1
 936 1298 l 1,1,2
 853 1337 853 1337 781.5 1356.5 c 128,-1,3
 710 1376 710 1376 653 1376 c 0,4,5
 556 1376 556 1376 502.5 1336 c 128,-1,6
 449 1296 449 1296 449 1225 c 0,7,8
 449 1135 449 1135 654 1020 c 0,9,10
 680 1005 680 1005 694 997 c 0,11,12
 906 878 906 878 971 801 c 128,-1,13
 1036 724 1036 724 1036 623 c 0,14,15
 1036 533 1036 533 990.5 463 c 128,-1,16
 945 393 945 393 852 340 c 1,17,18
 913 288 913 288 942 233.5 c 128,-1,19
 971 179 971 179 971 115 c 0,20,21
 971 -27 971 -27 869 -111 c 128,-1,22
 767 -195 767 -195 594 -195 c 0,23,24
 521 -195 521 -195 443.5 -180.5 c 128,-1,25
 366 -166 366 -166 279 -137 c 1,26,-1
 279 27 l 1,27,28
 366 -12 366 -12 440 -31.5 c 128,-1,29
 514 -51 514 -51 571 -51 c 0,30,31
 673 -51 673 -51 729.5 -9 c 128,-1,32
 786 33 786 33 786 109 c 0,33,34
 786 211 786 211 565 334 c 2,35,-1
 541 348 l 2,36,37
 327 468 327 468 263 544.5 c 128,-1,38
 199 621 199 621 199 723 c 0,39,40
 199 814 199 814 245.5 885.5 c 128,-1,41
 292 957 292 957 383 1006 c 1,42,43
 323 1050 323 1050 293.5 1106 c 128,-1,44
 264 1162 264 1162 264 1231 c 0,45,46
 264 1361 264 1361 364 1440.5 c 128,-1,47
 464 1520 464 1520 631 1520 c 0,48,49
 703 1520 703 1520 779.5 1505.5 c 128,-1,50
 856 1491 856 1491 936 1462 c 1,0,-1
485 936 m 1,51,52
 423 891 423 891 392.5 846 c 128,-1,53
 362 801 362 801 362 754 c 0,54,55
 362 678 362 678 432.5 610.5 c 128,-1,56
 503 543 503 543 750 410 c 1,57,58
 812 455 812 455 842 500 c 128,-1,59
 872 545 872 545 872 592 c 0,60,61
 872 668 872 668 800.5 736 c 128,-1,62
 729 804 729 804 485 936 c 1,51,52
EndSplineSet
EndChar
StartChar: dieresis
Encoding: 168 168 142
Width: 1233
Flags: W
Fore
319 1552 m 1,0,-1
 522 1552 l 1,1,-1
 522 1350 l 1,2,-1
 319 1350 l 1,3,-1
 319 1552 l 1,0,-1
711 1552 m 1,4,-1
 913 1552 l 1,5,-1
 913 1350 l 1,6,-1
 711 1350 l 1,7,-1
 711 1552 l 1,4,-1
EndSplineSet
Ligature: 0 0 'liga' space uni0308
EndChar
StartChar: copyright
Encoding: 169 169 139
Width: 1233
Flags: W
Fore
864 1071 m 1,0,-1
 864 963 l 1,1,2
 806 991 806 991 750.5 1004.5 c 128,-1,3
 695 1018 695 1018 637 1018 c 0,4,5
 520 1018 520 1018 452.5 943.5 c 128,-1,6
 385 869 385 869 385 741 c 0,7,8
 385 609 385 609 455 538 c 128,-1,9
 525 467 525 467 655 467 c 0,10,11
 711 467 711 467 762.5 479.5 c 128,-1,12
 814 492 814 492 864 518 c 1,13,-1
 864 414 l 1,14,15
 812 391 812 391 755 380 c 128,-1,16
 698 369 698 369 637 369 c 0,17,18
 457 369 457 369 353.5 469 c 128,-1,19
 250 569 250 569 250 741 c 0,20,21
 250 914 250 914 354 1015 c 128,-1,22
 458 1116 458 1116 637 1116 c 0,23,24
 698 1116 698 1116 755 1105 c 128,-1,25
 812 1094 812 1094 864 1071 c 1,0,-1
616 1255 m 0,26,27
 510 1255 510 1255 419.5 1218 c 128,-1,28
 329 1181 329 1181 254 1106 c 0,29,30
 179 1031 179 1031 140.5 939 c 128,-1,31
 102 847 102 847 102 741 c 0,32,33
 102 637 102 637 140.5 545.5 c 128,-1,34
 179 454 179 454 254 379 c 0,35,36
 330 303 330 303 420.5 265 c 128,-1,37
 511 227 511 227 616 227 c 0,38,39
 722 227 722 227 812.5 265 c 128,-1,40
 903 303 903 303 979 379 c 0,41,42
 1055 455 1055 455 1092.5 545.5 c 128,-1,43
 1130 636 1130 636 1130 741 c 0,44,45
 1130 847 1130 847 1092 939 c 128,-1,46
 1054 1031 1054 1031 979 1106 c 0,47,48
 904 1181 904 1181 813.5 1218 c 128,-1,49
 723 1255 723 1255 616 1255 c 0,26,27
616 1358 m 0,50,51
 743 1358 743 1358 852 1313 c 128,-1,52
 961 1268 961 1268 1051 1178 c 0,53,54
 1141 1087 1141 1087 1187 977 c 128,-1,55
 1233 867 1233 867 1233 741 c 0,56,57
 1233 616 1233 616 1187.5 507 c 128,-1,58
 1142 398 1142 398 1051 307 c 0,59,60
 960 216 960 216 851 170.5 c 128,-1,61
 742 125 742 125 616 125 c 0,62,63
 491 125 491 125 382 170.5 c 128,-1,64
 273 216 273 216 182 307 c 0,65,66
 91 398 91 398 45.5 507 c 128,-1,67
 0 616 0 616 0 741 c 0,68,69
 0 867 0 867 46 977 c 128,-1,70
 92 1087 92 1087 182 1178 c 0,71,72
 272 1268 272 1268 381 1313 c 128,-1,73
 490 1358 490 1358 616 1358 c 0,50,51
EndSplineSet
EndChar
StartChar: ordfeminine
Encoding: 170 170 157
Width: 1233
Flags: W
Fore
684 1104 m 2,0,1
 540 1104 540 1104 478 1070 c 128,-1,2
 416 1036 416 1036 416 958 c 0,3,4
 416 894 416 894 459.5 855.5 c 128,-1,5
 503 817 503 817 575 817 c 0,6,7
 680 817 680 817 745.5 888.5 c 128,-1,8
 811 960 811 960 811 1075 c 2,9,-1
 811 1104 l 1,10,-1
 684 1104 l 2,0,1
954 1165 m 2,11,-1
 954 717 l 1,12,-1
 811 717 l 1,13,-1
 811 829 l 1,14,15
 762 764 762 764 696.5 731 c 128,-1,16
 631 698 631 698 549 698 c 0,17,18
 420 698 420 698 345 766 c 128,-1,19
 270 834 270 834 270 950 c 0,20,21
 270 1079 270 1079 363.5 1149 c 128,-1,22
 457 1219 457 1219 629 1219 c 2,23,-1
 811 1219 l 1,24,-1
 811 1223 l 2,25,26
 811 1313 811 1313 751.5 1359 c 128,-1,27
 692 1405 692 1405 575 1405 c 0,28,29
 524 1405 524 1405 461.5 1387.5 c 128,-1,30
 399 1370 399 1370 332 1337 c 1,31,-1
 332 1464 l 1,32,33
 400 1492 400 1492 467.5 1506 c 128,-1,34
 535 1520 535 1520 598 1520 c 0,35,36
 782 1520 782 1520 868 1434 c 128,-1,37
 954 1348 954 1348 954 1165 c 2,11,-1
293 592 m 1,38,-1
 961 592 l 1,39,-1
 961 469 l 1,40,-1
 293 469 l 1,41,-1
 293 592 l 1,38,-1
EndSplineSet
EndChar
StartChar: guillemotleft
Encoding: 171 171 169
Width: 1233
Flags: W
Fore
588 1059 m 1,0,-1
 588 868 l 1,1,-1
 287 600 l 1,2,-1
 588 332 l 1,3,-1
 588 141 l 1,4,-1
 119 559 l 1,5,-1
 119 641 l 1,6,-1
 588 1059 l 1,0,-1
1042 1059 m 1,7,-1
 1042 868 l 1,8,-1
 741 600 l 1,9,-1
 1042 332 l 1,10,-1
 1042 141 l 1,11,-1
 573 559 l 1,12,-1
 573 641 l 1,13,-1
 1042 1059 l 1,7,-1
EndSplineSet
EndChar
StartChar: logicalnot
Encoding: 172 172 164
Width: 1233
Flags: W
Fore
88 862 m 1,0,-1
 1145 862 l 1,1,-1
 1145 371 l 1,2,-1
 977 371 l 1,3,-1
 977 690 l 1,4,-1
 88 690 l 1,5,-1
 88 862 l 1,0,-1
EndSplineSet
EndChar
StartChar: sfthyphen
Encoding: 173 173 256
Width: 1233
Flags: W
Fore
356 643 m 1,0,-1
 877 643 l 1,1,-1
 877 479 l 1,2,-1
 356 479 l 1,3,-1
 356 643 l 1,0,-1
EndSplineSet
EndChar
StartChar: registered
Encoding: 174 174 138
Width: 1233
Flags: W
Fore
600 1100 m 2,0,1
 747 1100 747 1100 819 1051 c 128,-1,2
 891 1002 891 1002 891 901 c 0,3,4
 891 830 891 830 847 783.5 c 128,-1,5
 803 737 803 737 723 723 c 1,6,7
 742 718 742 718 771 684.5 c 128,-1,8
 800 651 800 651 838 592 c 1,9,-1
 952 406 l 1,10,-1
 809 406 l 1,11,-1
 702 580 l 2,12,13
 653 660 653 660 622.5 681 c 128,-1,14
 592 702 592 702 547 702 c 2,15,-1
 492 702 l 1,16,-1
 492 406 l 1,17,-1
 362 406 l 1,18,-1
 362 1100 l 1,19,-1
 600 1100 l 2,0,1
594 1016 m 2,20,-1
 492 1016 l 1,21,-1
 492 784 l 1,22,-1
 594 784 l 2,23,24
 684 784 684 784 721 811 c 128,-1,25
 758 838 758 838 758 901 c 0,26,27
 758 963 758 963 721 989.5 c 128,-1,28
 684 1016 684 1016 594 1016 c 2,20,-1
616 1358 m 0,29,30
 743 1358 743 1358 852 1313 c 128,-1,31
 961 1268 961 1268 1051 1178 c 0,32,33
 1141 1087 1141 1087 1187 977 c 128,-1,34
 1233 867 1233 867 1233 741 c 0,35,36
 1233 616 1233 616 1187.5 507 c 128,-1,37
 1142 398 1142 398 1051 307 c 0,38,39
 960 216 960 216 851 170.5 c 128,-1,40
 742 125 742 125 616 125 c 0,41,42
 491 125 491 125 382 170.5 c 128,-1,43
 273 216 273 216 182 307 c 0,44,45
 91 398 91 398 45.5 507 c 128,-1,46
 0 616 0 616 0 741 c 0,47,48
 0 867 0 867 46 977 c 128,-1,49
 92 1087 92 1087 182 1178 c 0,50,51
 272 1268 272 1268 381 1313 c 128,-1,52
 490 1358 490 1358 616 1358 c 0,29,30
616 1255 m 0,53,54
 510 1255 510 1255 419.5 1218 c 128,-1,55
 329 1181 329 1181 254 1106 c 0,56,57
 179 1031 179 1031 140.5 939 c 128,-1,58
 102 847 102 847 102 741 c 0,59,60
 102 637 102 637 140.5 545.5 c 128,-1,61
 179 454 179 454 254 379 c 0,62,63
 330 303 330 303 420.5 265 c 128,-1,64
 511 227 511 227 616 227 c 0,65,66
 722 227 722 227 812.5 265 c 128,-1,67
 903 303 903 303 979 379 c 0,68,69
 1055 455 1055 455 1092.5 545.5 c 128,-1,70
 1130 636 1130 636 1130 741 c 0,71,72
 1130 847 1130 847 1092 939 c 128,-1,73
 1054 1031 1054 1031 979 1106 c 0,74,75
 904 1181 904 1181 813.5 1218 c 128,-1,76
 723 1255 723 1255 616 1255 c 0,53,54
EndSplineSet
EndChar
StartChar: macron
Encoding: 175 175 217
Width: 1233
Flags: W
Fore
317 1526 m 1,0,-1
 915 1526 l 1,1,-1
 915 1378 l 1,2,-1
 317 1378 l 1,3,-1
 317 1526 l 1,0,-1
EndSplineSet
Ligature: 0 0 'liga' space uni0304
EndChar
StartChar: degree
Encoding: 176 176 131
Width: 1233
Flags: W
Fore
616 1520 m 0,0,1
 681 1520 681 1520 739.5 1495.5 c 128,-1,2
 798 1471 798 1471 842 1425 c 0,3,4
 887 1380 887 1380 910.5 1323 c 128,-1,5
 934 1266 934 1266 934 1200 c 0,6,7
 934 1068 934 1068 841 976.5 c 128,-1,8
 748 885 748 885 614 885 c 0,9,10
 479 885 479 885 389 975 c 128,-1,11
 299 1065 299 1065 299 1200 c 0,12,13
 299 1334 299 1334 391 1427 c 128,-1,14
 483 1520 483 1520 616 1520 c 0,0,1
616 1391 m 0,15,16
 537 1391 537 1391 481.5 1335.5 c 128,-1,17
 426 1280 426 1280 426 1200 c 0,18,19
 426 1120 426 1120 480.5 1066 c 128,-1,20
 535 1012 535 1012 614 1012 c 0,21,22
 694 1012 694 1012 750.5 1067 c 128,-1,23
 807 1122 807 1122 807 1200 c 0,24,25
 807 1279 807 1279 751 1335 c 128,-1,26
 695 1391 695 1391 616 1391 c 0,15,16
EndSplineSet
EndChar
StartChar: plusminus
Encoding: 177 177 147
Width: 1233
Flags: W
Fore
88 170 m 1,0,-1
 1145 170 l 1,1,-1
 1145 0 l 1,2,-1
 88 0 l 1,3,-1
 88 170 l 1,0,-1
700 1171 m 1,4,-1
 700 842 l 1,5,-1
 1145 842 l 1,6,-1
 1145 672 l 1,7,-1
 700 672 l 1,8,-1
 700 340 l 1,9,-1
 532 340 l 1,10,-1
 532 672 l 1,11,-1
 88 672 l 1,12,-1
 88 842 l 1,13,-1
 532 842 l 1,14,-1
 532 1171 l 1,15,-1
 700 1171 l 1,4,-1
EndSplineSet
EndChar
StartChar: twosuperior
Encoding: 178 178 241
Width: 1233
Flags: W
Fore
483 782 m 1,0,-1
 893 782 l 1,1,-1
 893 668 l 1,2,-1
 322 668 l 1,3,-1
 322 778 l 1,4,-1
 553 1004 l 1,5,6
 654 1101 654 1101 694.5 1162 c 128,-1,7
 735 1223 735 1223 735 1274 c 0,8,9
 735 1335 735 1335 685 1373 c 128,-1,10
 635 1411 635 1411 553 1411 c 0,11,12
 504 1411 504 1411 447.5 1393 c 128,-1,13
 391 1375 391 1375 328 1339 c 1,14,-1
 328 1464 l 1,15,16
 393 1492 393 1492 453.5 1506 c 128,-1,17
 514 1520 514 1520 573 1520 c 0,18,19
 715 1520 715 1520 801 1453.5 c 128,-1,20
 887 1387 887 1387 887 1280 c 0,21,22
 887 1223 887 1223 850 1163.5 c 128,-1,23
 813 1104 813 1104 694 987 c 2,24,-1
 483 782 l 1,0,-1
EndSplineSet
EndChar
StartChar: threesuperior
Encoding: 179 179 242
Width: 1233
Flags: W
Fore
731 1120 m 1,0,1
 825 1099 825 1099 874.5 1045 c 128,-1,2
 924 991 924 991 924 911 c 0,3,4
 924 787 924 787 829 720 c 128,-1,5
 734 653 734 653 557 653 c 0,6,7
 499 653 499 653 442 663.5 c 128,-1,8
 385 674 385 674 326 694 c 1,9,-1
 326 815 l 1,10,11
 395 788 395 788 451.5 775 c 128,-1,12
 508 762 508 762 553 762 c 0,13,14
 654 762 654 762 713 802.5 c 128,-1,15
 772 843 772 843 772 911 c 0,16,17
 772 985 772 985 717 1023 c 128,-1,18
 662 1061 662 1061 553 1061 c 2,19,-1
 487 1061 l 1,20,-1
 487 1169 l 1,21,-1
 561 1169 l 2,22,23
 654 1169 654 1169 703 1200.5 c 128,-1,24
 752 1232 752 1232 752 1292 c 0,25,26
 752 1348 752 1348 704 1379.5 c 128,-1,27
 656 1411 656 1411 569 1411 c 0,28,29
 525 1411 525 1411 469 1399 c 128,-1,30
 413 1387 413 1387 354 1364 c 1,31,-1
 354 1485 l 1,32,33
 423 1502 423 1502 481.5 1511 c 128,-1,34
 540 1520 540 1520 590 1520 c 0,35,36
 735 1520 735 1520 819 1461 c 128,-1,37
 903 1402 903 1402 903 1303 c 0,38,39
 903 1232 903 1232 859 1185.5 c 128,-1,40
 815 1139 815 1139 731 1120 c 1,0,1
EndSplineSet
EndChar
StartChar: acute
Encoding: 180 180 141
Width: 1233
Flags: W
Fore
756 1638 m 5,0,-1
 954 1638 l 5,1,-1
 629 1262 l 5,2,-1
 475 1262 l 5,3,-1
 756 1638 l 5,0,-1
EndSplineSet
LCarets: 0 65535 '    ' 1 0 
Ligature: 0 0 'liga' space acutecomb
EndChar
StartChar: mu
Encoding: 181 181 151
Width: 1233
Flags: W
Fore
195 -428 m 1,0,-1
 195 1120 l 1,1,-1
 379 1120 l 1,2,-1
 379 424 l 2,3,4
 379 282 379 282 439 206.5 c 128,-1,5
 499 131 499 131 610 131 c 0,6,7
 737 131 737 131 801.5 216 c 128,-1,8
 866 301 866 301 866 467 c 2,9,-1
 866 1120 l 1,10,-1
 1051 1120 l 1,11,-1
 1051 256 l 2,12,13
 1051 197 1051 197 1067 169 c 128,-1,14
 1083 141 1083 141 1116 141 c 0,15,16
 1125 141 1125 141 1139.5 146 c 128,-1,17
 1154 151 1154 151 1182 164 c 1,18,-1
 1182 16 l 1,19,20
 1144 -7 1144 -7 1110 -18 c 128,-1,21
 1076 -29 1076 -29 1042 -29 c 0,22,23
 980 -29 980 -29 942.5 10.5 c 128,-1,24
 905 50 905 50 893 129 c 1,25,26
 847 49 847 49 780.5 10 c 128,-1,27
 714 -29 714 -29 625 -29 c 0,28,29
 533 -29 533 -29 469.5 9 c 128,-1,30
 406 47 406 47 362 127 c 1,31,-1
 362 -428 l 1,32,-1
 195 -428 l 1,0,-1
EndSplineSet
EndChar
StartChar: paragraph
Encoding: 182 182 136
Width: 1233
Flags: W
Fore
582 1493 m 2,0,-1
 1030 1493 l 1,1,-1
 1030 -197 l 1,2,-1
 889 -197 l 1,3,-1
 889 1370 l 1,4,-1
 698 1370 l 1,5,-1
 698 -197 l 1,6,-1
 557 -197 l 1,7,-1
 557 649 l 1,8,9
 342 666 342 666 224 776.5 c 128,-1,10
 106 887 106 887 106 1071 c 0,11,12
 106 1261 106 1261 236.5 1377 c 128,-1,13
 367 1493 367 1493 582 1493 c 2,0,-1
EndSplineSet
EndChar
StartChar: periodcentered
Encoding: 183 183 195
Width: 1233
Flags: W
Fore
489 864 m 1,0,-1
 741 864 l 1,1,-1
 741 559 l 1,2,-1
 489 559 l 1,3,-1
 489 864 l 1,0,-1
EndSplineSet
EndChar
StartChar: cedilla
Encoding: 184 184 221
Width: 1233
Flags: W
Fore
700 0 m 1,0,1
 756 -62 756 -62 782.5 -114.5 c 128,-1,2
 809 -167 809 -167 809 -215 c 0,3,4
 809 -304 809 -304 749 -349.5 c 128,-1,5
 689 -395 689 -395 571 -395 c 0,6,7
 526 -395 526 -395 482.5 -389 c 128,-1,8
 439 -383 439 -383 395 -371 c 1,9,-1
 395 -240 l 1,10,11
 429 -257 429 -257 466.5 -264.5 c 128,-1,12
 504 -272 504 -272 551 -272 c 0,13,14
 609 -272 609 -272 639.5 -248 c 128,-1,15
 670 -224 670 -224 670 -178 c 0,16,17
 670 -148 670 -148 648 -104.5 c 128,-1,18
 626 -61 626 -61 582 0 c 1,19,-1
 700 0 l 1,0,1
EndSplineSet
Ligature: 0 0 'liga' space uni0327
EndChar
StartChar: onesuperior
Encoding: 185 185 240
Width: 1233
Flags: W
Fore
362 778 m 1,0,-1
 567 778 l 1,1,-1
 567 1389 l 1,2,-1
 344 1348 l 1,3,-1
 344 1464 l 1,4,-1
 573 1503 l 1,5,-1
 711 1503 l 1,6,-1
 711 778 l 1,7,-1
 915 778 l 1,8,-1
 915 668 l 1,9,-1
 362 668 l 1,10,-1
 362 778 l 1,0,-1
EndSplineSet
EndChar
StartChar: ordmasculine
Encoding: 186 186 158
Width: 1233
Flags: W
Fore
616 1403 m 0,0,1
 514 1403 514 1403 456.5 1325 c 128,-1,2
 399 1247 399 1247 399 1108 c 0,3,4
 399 969 399 969 456.5 892 c 128,-1,5
 514 815 514 815 616 815 c 0,6,7
 717 815 717 815 775.5 893.5 c 128,-1,8
 834 972 834 972 834 1108 c 0,9,10
 834 1247 834 1247 776.5 1325 c 128,-1,11
 719 1403 719 1403 616 1403 c 0,0,1
616 1520 m 0,12,13
 786 1520 786 1520 887.5 1408 c 128,-1,14
 989 1296 989 1296 989 1108 c 0,15,16
 989 921 989 921 888 809.5 c 128,-1,17
 787 698 787 698 616 698 c 0,18,19
 446 698 446 698 345 809.5 c 128,-1,20
 244 921 244 921 244 1108 c 0,21,22
 244 1296 244 1296 345.5 1408 c 128,-1,23
 447 1520 447 1520 616 1520 c 0,12,13
276 592 m 1,24,-1
 952 592 l 1,25,-1
 952 469 l 1,26,-1
 276 469 l 1,27,-1
 276 592 l 1,24,-1
EndSplineSet
EndChar
StartChar: guillemotright
Encoding: 187 187 170
Width: 1233
Flags: W
Fore
647 1059 m 1,0,-1
 1116 641 l 1,1,-1
 1116 559 l 1,2,-1
 647 141 l 1,3,-1
 647 332 l 1,4,-1
 948 600 l 1,5,-1
 647 868 l 1,6,-1
 647 1059 l 1,0,-1
193 1059 m 1,7,-1
 662 641 l 1,8,-1
 662 559 l 1,9,-1
 193 141 l 1,10,-1
 193 332 l 1,11,-1
 494 600 l 1,12,-1
 193 868 l 1,13,-1
 193 1059 l 1,7,-1
EndSplineSet
EndChar
StartChar: questiondown
Encoding: 191 191 162
Width: 1233
Flags: W
Fore
549 1092 m 1,0,-1
 739 1092 l 1,1,-1
 739 938 l 2,2,3
 739 840 739 840 708.5 771.5 c 128,-1,4
 678 703 678 703 594 621 c 2,5,-1
 504 532 l 1,6,7
 442 473 442 473 418.5 429 c 128,-1,8
 395 385 395 385 395 336 c 0,9,10
 395 247 395 247 460.5 192 c 128,-1,11
 526 137 526 137 635 137 c 0,12,13
 713 137 713 137 802 171.5 c 128,-1,14
 891 206 891 206 989 274 c 1,15,-1
 989 86 l 1,16,17
 895 29 895 29 799.5 1 c 128,-1,18
 704 -27 704 -27 600 -27 c 0,19,20
 414 -27 414 -27 303.5 69 c 128,-1,21
 193 165 193 165 193 326 c 0,22,23
 193 402 193 402 226.5 467.5 c 128,-1,24
 260 533 260 533 354 625 c 2,25,-1
 442 711 l 2,26,27
 509 775 509 775 528 817 c 128,-1,28
 547 859 547 859 547 922 c 0,29,30
 547 923 547 923 547 927 c 0,31,32
 549 950 549 950 549 969 c 2,33,-1
 549 1092 l 1,0,-1
745 1239 m 1,34,-1
 543 1239 l 1,35,-1
 543 1493 l 1,36,-1
 745 1493 l 1,37,-1
 745 1239 l 1,34,-1
EndSplineSet
EndChar
StartChar: Aring
Encoding: 197 197 99
Width: 1233
Flags: W
Fore
768 1626 m 0,0,1
 768 1689 768 1689 723.5 1733.5 c 128,-1,2
 679 1778 679 1778 616 1778 c 0,3,4
 552 1778 552 1778 508.5 1734.5 c 128,-1,5
 465 1691 465 1691 465 1626 c 0,6,7
 465 1563 465 1563 509 1519 c 128,-1,8
 553 1475 553 1475 616 1475 c 0,9,10
 679 1475 679 1475 723.5 1519 c 128,-1,11
 768 1563 768 1563 768 1626 c 0,0,1
616 1311 m 1,12,-1
 403 551 l 1,13,-1
 829 551 l 1,14,-1
 616 1311 l 1,12,-1
465 1399 m 1,15,16
 407 1432 407 1432 374.5 1492.5 c 128,-1,17
 342 1553 342 1553 342 1626 c 0,18,19
 342 1740 342 1740 422 1820.5 c 128,-1,20
 502 1901 502 1901 616 1901 c 0,21,22
 730 1901 730 1901 810.5 1820.5 c 128,-1,23
 891 1740 891 1740 891 1626 c 0,24,25
 891 1553 891 1553 859 1494 c 128,-1,26
 827 1435 827 1435 768 1399 c 1,27,-1
 1196 0 l 1,28,-1
 987 0 l 1,29,-1
 877 389 l 1,30,-1
 354 389 l 1,31,-1
 246 0 l 1,32,-1
 37 0 l 1,33,-1
 465 1399 l 1,15,16
EndSplineSet
Ligature: 0 1 'liga' A uni030A
EndChar
StartChar: AE
Encoding: 198 198 144
Width: 1233
Flags: W
Fore
1161 1493 m 1,0,-1
 1161 1323 l 1,1,-1
 823 1323 l 1,2,-1
 823 881 l 1,3,-1
 1130 881 l 1,4,-1
 1130 711 l 1,5,-1
 823 711 l 1,6,-1
 823 170 l 1,7,-1
 1180 170 l 1,8,-1
 1180 0 l 1,9,-1
 637 0 l 1,10,-1
 637 383 l 1,11,-1
 285 383 l 1,12,-1
 184 0 l 1,13,-1
 0 0 l 1,14,-1
 410 1493 l 1,15,-1
 1161 1493 l 1,0,-1
530 1323 m 1,16,-1
 328 551 l 1,17,-1
 637 551 l 1,18,-1
 637 1323 l 1,19,-1
 530 1323 l 1,16,-1
EndSplineSet
EndChar
StartChar: Eth
Encoding: 208 208 232
Width: 1233
Flags: W
Fore
436 1493 m 2,0,1
 778 1493 778 1493 940 1311 c 128,-1,2
 1102 1129 1102 1129 1102 745 c 0,3,4
 1102 363 1102 363 939.5 181.5 c 128,-1,5
 777 0 777 0 436 0 c 2,6,-1
 133 0 l 1,7,-1
 133 709 l 1,8,-1
 8 709 l 1,9,-1
 8 858 l 1,10,-1
 133 858 l 1,11,-1
 133 1493 l 1,12,-1
 436 1493 l 2,0,1
436 166 m 2,13,14
 691 166 691 166 792 291.5 c 128,-1,15
 893 417 893 417 893 745 c 0,16,17
 893 1076 893 1076 792.5 1201.5 c 128,-1,18
 692 1327 692 1327 436 1327 c 2,19,-1
 340 1327 l 1,20,-1
 340 858 l 1,21,-1
 604 858 l 1,22,-1
 604 709 l 1,23,-1
 340 709 l 1,24,-1
 340 166 l 1,25,-1
 436 166 l 2,13,14
EndSplineSet
EndChar
StartChar: multiply
Encoding: 215 215 239
Width: 1233
Flags: W
Fore
150 293 m 1,0,-1
 500 641 l 1,1,-1
 150 991 l 1,2,-1
 266 1108 l 1,3,-1
 616 758 l 1,4,-1
 967 1108 l 1,5,-1
 1083 991 l 1,6,-1
 733 641 l 1,7,-1
 1081 293 l 1,8,-1
 965 174 l 1,9,-1
 616 524 l 1,10,-1
 268 174 l 1,11,-1
 150 293 l 1,0,-1
EndSplineSet
EndChar
StartChar: Oslash
Encoding: 216 216 145
Width: 1233
Flags: W
Fore
371 303 m 1,0,1
 401 225 401 225 466.5 180 c 128,-1,2
 532 135 532 135 616 135 c 0,3,4
 770 135 770 135 837.5 275.5 c 128,-1,5
 905 416 905 416 905 745 c 0,6,7
 905 855 905 855 900 923 c 128,-1,8
 895 991 895 991 885 1036 c 1,9,-1
 371 303 l 1,0,1
338 471 m 1,10,-1
 842 1190 l 1,11,12
 817 1271 817 1271 759.5 1313.5 c 128,-1,13
 702 1356 702 1356 616 1356 c 0,14,15
 459 1356 459 1356 393.5 1210 c 128,-1,16
 328 1064 328 1064 328 686 c 0,17,18
 328 606 328 606 330.5 555.5 c 128,-1,19
 333 505 333 505 338 471 c 1,10,-1
1032 1247 m 1,20,21
 1073 1166 1073 1166 1094.5 1037 c 128,-1,22
 1116 908 1116 908 1116 745 c 0,23,24
 1116 355 1116 355 992.5 163 c 128,-1,25
 869 -29 869 -29 616 -29 c 0,26,27
 495 -29 495 -29 405 11.5 c 128,-1,28
 315 52 315 52 254 133 c 1,29,-1
 111 -70 l 1,30,-1
 8 0 l 1,31,-1
 186 252 l 1,32,33
 154 325 154 325 135.5 456 c 128,-1,34
 117 587 117 587 117 745 c 0,35,36
 117 1136 117 1136 240.5 1328 c 128,-1,37
 364 1520 364 1520 616 1520 c 0,38,39
 731 1520 731 1520 817.5 1479 c 128,-1,40
 904 1438 904 1438 961 1358 c 1,41,-1
 1100 1559 l 1,42,-1
 1200 1485 l 1,43,-1
 1032 1247 l 1,20,21
EndSplineSet
EndChar
StartChar: Thorn
Encoding: 222 222 236
Width: 1233
Flags: W
Fore
403 1057 m 1,0,-1
 403 532 l 1,1,-1
 637 532 l 2,2,3
 795 532 795 532 873.5 598 c 128,-1,4
 952 664 952 664 952 795 c 0,5,6
 952 926 952 926 873.5 991.5 c 128,-1,7
 795 1057 795 1057 637 1057 c 2,8,-1
 403 1057 l 1,0,-1
201 1493 m 1,9,-1
 403 1493 l 1,10,-1
 403 1223 l 1,11,-1
 657 1223 l 2,12,13
 917 1223 917 1223 1041 1118 c 128,-1,14
 1165 1013 1165 1013 1165 795 c 0,15,16
 1165 576 1165 576 1041 471.5 c 128,-1,17
 917 367 917 367 657 367 c 2,18,-1
 403 367 l 1,19,-1
 403 0 l 1,20,-1
 201 0 l 1,21,-1
 201 1493 l 1,9,-1
EndSplineSet
EndChar
StartChar: germandbls
Encoding: 223 223 137
Width: 1233
Flags: W
Fore
188 1137 m 2,0,1
 188 1350 188 1350 293 1453 c 128,-1,2
 398 1556 398 1556 614 1556 c 0,3,4
 818 1556 818 1556 923 1445.5 c 128,-1,5
 1028 1335 1028 1335 1030 1119 c 1,6,7
 875 1105 875 1105 791 1043 c 128,-1,8
 707 981 707 981 707 881 c 0,9,10
 707 832 707 832 734.5 793.5 c 128,-1,11
 762 755 762 755 829 713 c 2,12,-1
 887 676 l 2,13,14
 1038 583 1038 583 1093.5 501 c 128,-1,15
 1149 419 1149 419 1149 303 c 0,16,17
 1149 149 1149 149 1037 60 c 128,-1,18
 925 -29 925 -29 729 -29 c 0,19,20
 660 -29 660 -29 592.5 -16.5 c 128,-1,21
 525 -4 525 -4 459 20 c 1,22,-1
 459 184 l 1,23,24
 535 153 535 153 601.5 138 c 128,-1,25
 668 123 668 123 727 123 c 0,26,27
 835 123 835 123 899 171.5 c 128,-1,28
 963 220 963 220 963 301 c 0,29,30
 963 372 963 372 930.5 419.5 c 128,-1,31
 898 467 898 467 778 541 c 1,32,-1
 711 580 l 1,33,34
 619 636 619 636 573.5 702.5 c 128,-1,35
 528 769 528 769 528 848 c 0,36,37
 528 976 528 976 609 1061.5 c 128,-1,38
 690 1147 690 1147 846 1182 c 1,39,40
 844 1289 844 1289 783.5 1346 c 128,-1,41
 723 1403 723 1403 610 1403 c 0,42,43
 489 1403 489 1403 432 1337.5 c 128,-1,44
 375 1272 375 1272 375 1133 c 2,45,-1
 375 0 l 1,46,-1
 188 0 l 1,47,-1
 188 1137 l 2,0,1
EndSplineSet
EndChar
StartChar: ae
Encoding: 230 230 160
Width: 1233
Flags: W
Fore
543 442 m 2,0,-1
 543 514 l 1,1,-1
 494 514 l 2,2,3
 325 514 325 514 265 469 c 128,-1,4
 205 424 205 424 205 311 c 0,5,6
 205 222 205 222 249.5 173.5 c 128,-1,7
 294 125 294 125 377 125 c 0,8,9
 469 125 469 125 506 191.5 c 128,-1,10
 543 258 543 258 543 442 c 2,0,-1
1036 657 m 1,11,-1
 1036 709 l 2,12,13
 1036 860 1036 860 997.5 926.5 c 128,-1,14
 959 993 959 993 872 993 c 0,15,16
 785 993 785 993 747 925 c 128,-1,17
 709 857 709 857 709 700 c 2,18,-1
 709 657 l 1,19,-1
 1036 657 l 1,11,-1
1200 514 m 1,20,-1
 709 514 l 1,21,22
 708 499 708 499 707.5 481.5 c 128,-1,23
 707 464 707 464 707 430 c 0,24,25
 707 269 707 269 757.5 197 c 128,-1,26
 808 125 808 125 920 125 c 0,27,28
 999 125 999 125 1063.5 150.5 c 128,-1,29
 1128 176 1128 176 1178 227 c 1,30,-1
 1178 55 l 1,31,32
 1123 14 1123 14 1057 -7.5 c 128,-1,33
 991 -29 991 -29 920 -29 c 0,34,35
 810 -29 810 -29 735.5 12 c 128,-1,36
 661 53 661 53 629 131 c 1,37,38
 590 51 590 51 523.5 11 c 128,-1,39
 457 -29 457 -29 360 -29 c 0,40,41
 204 -29 204 -29 122.5 57 c 128,-1,42
 41 143 41 143 41 307 c 0,43,44
 41 478 41 478 141 567.5 c 128,-1,45
 241 657 241 657 432 657 c 2,46,-1
 549 657 l 1,47,-1
 549 745 l 2,48,49
 549 865 549 865 499.5 929 c 128,-1,50
 450 993 450 993 356 993 c 0,51,52
 300 993 300 993 234 971.5 c 128,-1,53
 168 950 168 950 106 911 c 1,54,-1
 106 1079 l 1,55,56
 183 1114 183 1114 249 1130.5 c 128,-1,57
 315 1147 315 1147 375 1147 c 0,58,59
 466 1147 466 1147 528 1115.5 c 128,-1,60
 590 1084 590 1084 627 1020 c 1,61,62
 660 1081 660 1081 726 1114 c 128,-1,63
 792 1147 792 1147 881 1147 c 0,64,65
 1055 1147 1055 1147 1127.5 1028.5 c 128,-1,66
 1200 910 1200 910 1200 604 c 2,67,-1
 1200 514 l 1,20,-1
EndSplineSet
EndChar
StartChar: eth
Encoding: 240 240 233
Width: 1233
Flags: W
Fore
717 1327 m 1,0,1
 914 1115 914 1115 1005 925 c 128,-1,2
 1096 735 1096 735 1096 535 c 0,3,4
 1096 267 1096 267 970.5 119 c 128,-1,5
 845 -29 845 -29 616 -29 c 0,6,7
 388 -29 388 -29 262.5 119 c 128,-1,8
 137 267 137 267 137 535 c 0,9,10
 137 800 137 800 262.5 948 c 128,-1,11
 388 1096 388 1096 612 1096 c 0,12,13
 646 1096 646 1096 663.5 1095 c 128,-1,14
 681 1094 681 1094 696 1092 c 1,15,16
 663 1137 663 1137 627 1181.5 c 128,-1,17
 591 1226 591 1226 553 1270 c 1,18,-1
 274 1178 l 1,19,-1
 244 1276 l 1,20,-1
 481 1356 l 1,21,-1
 299 1556 l 1,22,-1
 518 1556 l 1,23,-1
 645 1411 l 1,24,-1
 934 1505 l 1,25,-1
 967 1407 l 1,26,-1
 717 1327 l 1,0,1
793 918 m 1,27,28
 758 931 758 931 717 937.5 c 128,-1,29
 676 944 676 944 631 944 c 0,30,31
 485 944 485 944 408.5 839 c 128,-1,32
 332 734 332 734 332 535 c 0,33,34
 332 339 332 339 406 233 c 128,-1,35
 480 127 480 127 616 127 c 0,36,37
 753 127 753 127 827 233 c 128,-1,38
 901 339 901 339 901 535 c 0,39,40
 901 645 901 645 872 746.5 c 128,-1,41
 843 848 843 848 793 918 c 1,27,28
EndSplineSet
EndChar
StartChar: divide
Encoding: 247 247 184
Width: 1233
Flags: W
Fore
494 395 m 1,0,-1
 739 395 l 1,1,-1
 739 150 l 1,2,-1
 494 150 l 1,3,-1
 494 395 l 1,0,-1
494 1135 m 1,4,-1
 739 1135 l 1,5,-1
 739 889 l 1,6,-1
 494 889 l 1,7,-1
 494 1135 l 1,4,-1
88 727 m 1,8,-1
 1145 727 l 1,9,-1
 1145 557 l 1,10,-1
 88 557 l 1,11,-1
 88 727 l 1,8,-1
EndSplineSet
EndChar
StartChar: oslash
Encoding: 248 248 161
Width: 1233
Flags: W
Fore
877 780 m 1,0,-1
 414 221 l 1,1,2
 450 174 450 174 500.5 150.5 c 128,-1,3
 551 127 551 127 616 127 c 0,4,5
 757 127 757 127 829 236.5 c 128,-1,6
 901 346 901 346 901 559 c 0,7,8
 901 611 901 611 895 666.5 c 128,-1,9
 889 722 889 722 877 780 c 1,0,-1
817 897 m 1,10,11
 782 945 782 945 732.5 968 c 128,-1,12
 683 991 683 991 616 991 c 0,13,14
 477 991 477 991 402.5 884 c 128,-1,15
 328 777 328 777 328 575 c 0,16,17
 328 527 328 527 335 469 c 128,-1,18
 342 411 342 411 356 340 c 1,19,-1
 817 897 l 1,10,11
217 180 m 1,20,21
 178 251 178 251 157.5 348.5 c 128,-1,22
 137 446 137 446 137 559 c 0,23,24
 137 845 137 845 260 996 c 128,-1,25
 383 1147 383 1147 616 1147 c 0,26,27
 716 1147 716 1147 795 1119.5 c 128,-1,28
 874 1092 874 1092 934 1036 c 1,29,-1
 1081 1212 l 1,30,-1
 1174 1135 l 1,31,-1
 1010 940 l 1,32,33
 1052 874 1052 874 1074 777.5 c 128,-1,34
 1096 681 1096 681 1096 559 c 0,35,36
 1096 272 1096 272 973 121.5 c 128,-1,37
 850 -29 850 -29 616 -29 c 0,38,39
 513 -29 513 -29 434.5 0.5 c 128,-1,40
 356 30 356 30 299 90 c 1,41,-1
 139 -96 l 1,42,-1
 47 -20 l 1,43,-1
 217 180 l 1,20,21
EndSplineSet
EndChar
StartChar: thorn
Encoding: 254 254 237
Width: 1233
Flags: W
Fore
375 141 m 1,0,-1
 375 -426 l 1,1,-1
 190 -426 l 1,2,-1
 190 1567 l 1,3,-1
 375 1567 l 1,4,-1
 375 977 l 1,5,6
 421 1060 421 1060 497.5 1103.5 c 128,-1,7
 574 1147 574 1147 674 1147 c 0,8,9
 877 1147 877 1147 992.5 990 c 128,-1,10
 1108 833 1108 833 1108 555 c 0,11,12
 1108 282 1108 282 992 126.5 c 128,-1,13
 876 -29 876 -29 674 -29 c 0,14,15
 572 -29 572 -29 495.5 14.5 c 128,-1,16
 419 58 419 58 375 141 c 1,0,-1
915 559 m 0,17,18
 915 773 915 773 847.5 882 c 128,-1,19
 780 991 780 991 647 991 c 0,20,21
 513 991 513 991 444 881.5 c 128,-1,22
 375 772 375 772 375 559 c 0,23,24
 375 347 375 347 444 237 c 128,-1,25
 513 127 513 127 647 127 c 0,26,27
 780 127 780 127 847.5 236 c 128,-1,28
 915 345 915 345 915 559 c 0,17,18
EndSplineSet
EndChar
StartChar: dcroat
Encoding: 273 273 255
Width: 1233
Flags: W
Fore
858 977 m 1,0,-1
 858 1286 l 1,1,-1
 553 1286 l 1,2,-1
 553 1407 l 1,3,-1
 858 1407 l 1,4,-1
 858 1556 l 1,5,-1
 1042 1556 l 1,6,-1
 1042 1407 l 1,7,-1
 1233 1407 l 1,8,-1
 1233 1286 l 1,9,-1
 1042 1286 l 1,10,-1
 1042 0 l 1,11,-1
 858 0 l 1,12,-1
 858 141 l 1,13,14
 812 58 812 58 735.5 14.5 c 128,-1,15
 659 -29 659 -29 559 -29 c 0,16,17
 356 -29 356 -29 239.5 128.5 c 128,-1,18
 123 286 123 286 123 563 c 0,19,20
 123 836 123 836 240 991.5 c 128,-1,21
 357 1147 357 1147 559 1147 c 0,22,23
 660 1147 660 1147 737 1103.5 c 128,-1,24
 814 1060 814 1060 858 977 c 1,0,-1
317 559 m 0,25,26
 317 345 317 345 385 236 c 128,-1,27
 453 127 453 127 586 127 c 0,28,29
 719 127 719 127 788.5 237 c 128,-1,30
 858 347 858 347 858 559 c 0,31,32
 858 772 858 772 788.5 881.5 c 128,-1,33
 719 991 719 991 586 991 c 0,34,35
 453 991 453 991 385 882 c 128,-1,36
 317 773 317 773 317 559 c 0,25,26
EndSplineSet
EndChar
StartChar: dotlessi
Encoding: 305 305 214
Width: 1233
Flags: W
Fore
256 1120 m 1,0,-1
 727 1120 l 1,1,-1
 727 143 l 1,2,-1
 1092 143 l 1,3,-1
 1092 0 l 1,4,-1
 178 0 l 1,5,-1
 178 143 l 1,6,-1
 543 143 l 1,7,-1
 543 977 l 1,8,-1
 256 977 l 1,9,-1
 256 1120 l 1,0,-1
EndSplineSet
EndChar
StartChar: Lslash
Encoding: 321 321 225
Width: 1233
Flags: W
Fore
215 1493 m 1,0,-1
 418 1493 l 1,1,-1
 418 877 l 1,2,-1
 733 1096 l 1,3,-1
 811 985 l 1,4,-1
 418 711 l 1,5,-1
 418 170 l 1,6,-1
 1139 170 l 1,7,-1
 1139 0 l 1,8,-1
 215 0 l 1,9,-1
 215 571 l 1,10,-1
 70 465 l 1,11,-1
 -10 575 l 1,12,-1
 215 733 l 1,13,-1
 215 1493 l 1,0,-1
EndSplineSet
EndChar
StartChar: lslash
Encoding: 322 322 226
Width: 1233
Flags: W
Fore
639 406 m 2,0,1
 639 282 639 282 684.5 219 c 128,-1,2
 730 156 730 156 819 156 c 2,3,-1
 1034 156 l 1,4,-1
 1034 0 l 1,5,-1
 801 0 l 2,6,7
 636 0 636 0 545.5 106 c 128,-1,8
 455 212 455 212 455 406 c 2,9,-1
 455 698 l 1,10,-1
 156 489 l 1,11,-1
 76 600 l 1,12,-1
 455 864 l 1,13,-1
 455 1423 l 1,14,-1
 160 1423 l 1,15,-1
 160 1567 l 1,16,-1
 639 1567 l 1,17,-1
 639 989 l 1,18,-1
 954 1208 l 1,19,-1
 1034 1098 l 1,20,-1
 639 823 l 1,21,-1
 639 406 l 2,0,1
EndSplineSet
EndChar
StartChar: OE
Encoding: 338 338 176
Width: 1233
Flags: W
Fore
1217 170 m 1,0,-1
 1217 0 l 1,1,-1
 612 0 l 2,2,3
 317 0 317 0 194.5 166.5 c 128,-1,4
 72 333 72 333 72 745 c 0,5,6
 72 1162 72 1162 194 1327.5 c 128,-1,7
 316 1493 316 1493 612 1493 c 2,8,-1
 1206 1493 l 1,9,-1
 1206 1323 l 1,10,-1
 848 1323 l 1,11,-1
 848 881 l 1,12,-1
 1176 881 l 1,13,-1
 1176 711 l 1,14,-1
 848 711 l 1,15,-1
 848 170 l 1,16,-1
 1217 170 l 1,0,-1
590 1323 m 2,17,18
 413 1323 413 1323 343.5 1208 c 128,-1,19
 274 1093 274 1093 274 745 c 0,20,21
 274 399 274 399 343.5 284.5 c 128,-1,22
 413 170 413 170 590 170 c 2,23,-1
 651 170 l 1,24,-1
 651 1323 l 1,25,-1
 590 1323 l 2,17,18
EndSplineSet
EndChar
StartChar: oe
Encoding: 339 339 177
Width: 1233
Flags: W
Fore
1047 657 m 1,0,1
 1047 668 1047 668 1048 687 c 128,-1,2
 1049 706 1049 706 1049 715 c 0,3,4
 1049 860 1049 860 1009 927.5 c 128,-1,5
 969 995 969 995 883 995 c 0,6,7
 796 995 796 995 757.5 926.5 c 128,-1,8
 719 858 719 858 719 700 c 2,9,-1
 719 657 l 1,10,-1
 1047 657 l 1,0,1
373 123 m 0,11,12
 475 123 475 123 516 207 c 128,-1,13
 557 291 557 291 557 530 c 0,14,15
 557 821 557 821 517 908 c 128,-1,16
 477 995 477 995 373 995 c 0,17,18
 270 995 270 995 230 911.5 c 128,-1,19
 190 828 190 828 190 559 c 0,20,21
 190 290 190 290 230 206.5 c 128,-1,22
 270 123 270 123 373 123 c 0,11,12
1210 514 m 1,23,-1
 719 514 l 1,24,-1
 719 430 l 2,25,26
 719 267 719 267 768.5 195 c 128,-1,27
 818 123 818 123 930 123 c 0,28,29
 1010 123 1010 123 1075.5 149.5 c 128,-1,30
 1141 176 1141 176 1188 227 c 1,31,-1
 1188 55 l 1,32,33
 1129 12 1129 12 1066.5 -8.5 c 128,-1,34
 1004 -29 1004 -29 930 -29 c 0,35,36
 832 -29 832 -29 758.5 4.5 c 128,-1,37
 685 38 685 38 637 104 c 1,38,39
 585 36 585 36 521 3.5 c 128,-1,40
 457 -29 457 -29 373 -29 c 0,41,42
 184 -29 184 -29 99 109 c 128,-1,43
 14 247 14 247 14 559 c 0,44,45
 14 871 14 871 99 1009 c 128,-1,46
 184 1147 184 1147 373 1147 c 0,47,48
 462 1147 462 1147 526 1116 c 128,-1,49
 590 1085 590 1085 637 1020 c 1,50,51
 674 1082 674 1082 739 1114.5 c 128,-1,52
 804 1147 804 1147 891 1147 c 0,53,54
 1066 1147 1066 1147 1138 1028.5 c 128,-1,55
 1210 910 1210 910 1210 604 c 2,56,-1
 1210 514 l 1,23,-1
EndSplineSet
EndChar
StartChar: florin
Encoding: 402 402 166
Width: 1233
Flags: W
Fore
1200 1520 m 1,0,-1
 1200 1356 l 1,1,2
 1164 1384 1164 1384 1123 1398.5 c 128,-1,3
 1082 1413 1082 1413 1038 1413 c 0,4,5
 936 1413 936 1413 878.5 1351 c 128,-1,6
 821 1289 821 1289 803 1159 c 1,7,-1
 758 848 l 1,8,-1
 1061 848 l 1,9,-1
 1061 705 l 1,10,-1
 733 705 l 1,11,-1
 633 70 l 1,12,13
 590 -196 590 -196 490.5 -311 c 128,-1,14
 391 -426 391 -426 205 -426 c 0,15,16
 148 -426 148 -426 97 -415.5 c 128,-1,17
 46 -405 46 -405 0 -383 c 1,18,-1
 0 -219 l 1,19,20
 49 -250 49 -250 99 -266.5 c 128,-1,21
 149 -283 149 -283 197 -283 c 0,22,23
 293 -283 293 -283 353.5 -208 c 128,-1,24
 414 -133 414 -133 440 18 c 1,25,-1
 557 705 l 1,26,-1
 305 705 l 1,27,-1
 305 848 l 1,28,-1
 580 848 l 1,29,-1
 629 1178 l 1,30,31
 655 1355 655 1355 754 1455.5 c 128,-1,32
 853 1556 853 1556 1001 1556 c 0,33,34
 1050 1556 1050 1556 1099.5 1547 c 128,-1,35
 1149 1538 1149 1538 1200 1520 c 1,0,-1
EndSplineSet
EndChar
StartChar: circumflex
Encoding: 710 710 215
Width: 1233
Flags: W
Fore
543 1638 m 1,0,-1
 690 1638 l 1,1,-1
 936 1262 l 1,2,-1
 797 1262 l 1,3,-1
 616 1507 l 1,4,-1
 436 1262 l 1,5,-1
 297 1262 l 1,6,-1
 543 1638 l 1,0,-1
EndSplineSet
EndChar
StartChar: caron
Encoding: 711 711 224
Width: 1233
Flags: W
Fore
543 1262 m 1,0,-1
 297 1638 l 1,1,-1
 436 1638 l 1,2,-1
 616 1393 l 1,3,-1
 797 1638 l 1,4,-1
 936 1638 l 1,5,-1
 690 1262 l 1,6,-1
 543 1262 l 1,0,-1
EndSplineSet
EndChar
StartChar: breve
Encoding: 728 728 218
Width: 1233
Flags: W
Fore
303 1608 m 1,0,-1
 422 1608 l 1,1,2
 433 1532 433 1532 481 1495 c 128,-1,3
 529 1458 529 1458 616 1458 c 0,4,5
 701 1458 701 1458 749 1495 c 128,-1,6
 797 1532 797 1532 811 1608 c 1,7,-1
 930 1608 l 1,8,9
 919 1465 919 1465 840 1393 c 128,-1,10
 761 1321 761 1321 616 1321 c 0,11,12
 472 1321 472 1321 393 1393 c 128,-1,13
 314 1465 314 1465 303 1608 c 1,0,-1
EndSplineSet
Ligature: 0 0 'liga' space uni0306
EndChar
StartChar: dotaccent
Encoding: 729 729 219
Width: 1233
Flags: W
Fore
514 1552 m 1,0,-1
 719 1552 l 1,1,-1
 719 1348 l 1,2,-1
 514 1348 l 1,3,-1
 514 1552 l 1,0,-1
EndSplineSet
Ligature: 0 0 'liga' space uni0307
EndChar
StartChar: ring
Encoding: 730 730 220
Width: 1233
Flags: W
Fore
891 1524 m 0,0,1
 891 1409 891 1409 811.5 1329 c 128,-1,2
 732 1249 732 1249 616 1249 c 0,3,4
 501 1249 501 1249 421.5 1329 c 128,-1,5
 342 1409 342 1409 342 1524 c 0,6,7
 342 1639 342 1639 421.5 1718.5 c 128,-1,8
 501 1798 501 1798 616 1798 c 0,9,10
 732 1798 732 1798 811.5 1718.5 c 128,-1,11
 891 1639 891 1639 891 1524 c 0,0,1
768 1524 m 0,12,13
 768 1587 768 1587 724 1631 c 128,-1,14
 680 1675 680 1675 616 1675 c 0,15,16
 552 1675 552 1675 508.5 1631.5 c 128,-1,17
 465 1588 465 1588 465 1524 c 0,18,19
 465 1459 465 1459 508.5 1415.5 c 128,-1,20
 552 1372 552 1372 616 1372 c 0,21,22
 680 1372 680 1372 724 1416 c 128,-1,23
 768 1460 768 1460 768 1524 c 0,12,13
EndSplineSet
LCarets: 0 65535 '    ' 1 0 
Ligature: 0 0 'liga' space uni030A
EndChar
StartChar: ogonek
Encoding: 731 731 223
Width: 1233
Flags: W
Fore
528 0 m 1,0,-1
 647 0 l 1,1,2
 602 -61 602 -61 580.5 -105 c 128,-1,3
 559 -149 559 -149 559 -180 c 0,4,5
 559 -226 559 -226 586.5 -249 c 128,-1,6
 614 -272 614 -272 668 -272 c 0,7,8
 700 -272 700 -272 731 -264.5 c 128,-1,9
 762 -257 762 -257 793 -242 c 1,10,-1
 793 -375 l 1,11,12
 755 -385 755 -385 721 -390 c 128,-1,13
 687 -395 687 -395 657 -395 c 0,14,15
 535 -395 535 -395 477.5 -351.5 c 128,-1,16
 420 -308 420 -308 420 -215 c 0,17,18
 420 -167 420 -167 446.5 -114.5 c 128,-1,19
 473 -62 473 -62 528 0 c 1,0,-1
EndSplineSet
Ligature: 0 0 'liga' space uni0328
EndChar
StartChar: tilde
Encoding: 732 732 216
Width: 1233
Flags: W
Fore
612 1370 m 1,0,-1
 555 1425 l 2,1,2
 534 1445 534 1445 517.5 1454.5 c 128,-1,3
 501 1464 501 1464 487 1464 c 0,4,5
 449 1464 449 1464 431 1427 c 128,-1,6
 413 1390 413 1390 411 1309 c 1,7,-1
 287 1309 l 1,8,9
 288 1443 288 1443 339 1517 c 128,-1,10
 390 1591 390 1591 481 1591 c 0,11,12
 520 1591 520 1591 552 1577 c 128,-1,13
 584 1563 584 1563 621 1530 c 1,14,-1
 678 1475 l 2,15,16
 699 1455 699 1455 715.5 1445.5 c 128,-1,17
 732 1436 732 1436 745 1436 c 0,18,19
 784 1436 784 1436 802 1473 c 128,-1,20
 820 1510 820 1510 821 1591 c 1,21,-1
 946 1591 l 1,22,23
 945 1457 945 1457 894 1383 c 128,-1,24
 843 1309 843 1309 752 1309 c 0,25,26
 713 1309 713 1309 681 1323 c 128,-1,27
 649 1337 649 1337 612 1370 c 1,0,-1
EndSplineSet
Ligature: 0 0 'liga' space tildecomb
EndChar
StartChar: hungarumlaut
Encoding: 733 733 222
Width: 1233
Flags: W
Fore
535 1638 m 1,0,-1
 705 1638 l 1,1,-1
 481 1262 l 1,2,-1
 344 1262 l 1,3,-1
 535 1638 l 1,0,-1
868 1638 m 1,4,-1
 1047 1638 l 1,5,-1
 799 1262 l 1,6,-1
 664 1262 l 1,7,-1
 868 1638 l 1,4,-1
EndSplineSet
Ligature: 0 0 'liga' space uni030B
EndChar
StartChar: Omega
Encoding: 937 937 159
Width: 1233
Flags: W
Fore
74 0 m 1,0,-1
 74 172 l 1,1,-1
 319 172 l 1,2,3
 196 306 196 306 141 450 c 128,-1,4
 86 594 86 594 86 782 c 0,5,6
 86 1093 86 1093 230 1276.5 c 128,-1,7
 374 1460 374 1460 614 1460 c 0,8,9
 856 1460 856 1460 1000.5 1277 c 128,-1,10
 1145 1094 1145 1094 1145 782 c 0,11,12
 1145 594 1145 594 1089.5 449.5 c 128,-1,13
 1034 305 1034 305 911 172 c 1,14,-1
 1159 172 l 1,15,-1
 1159 0 l 1,16,-1
 696 0 l 1,17,-1
 696 172 l 1,18,19
 816 248 816 248 883 412.5 c 128,-1,20
 950 577 950 577 950 799 c 0,21,22
 950 1029 950 1029 860 1161.5 c 128,-1,23
 770 1294 770 1294 616 1294 c 0,24,25
 462 1294 462 1294 372.5 1161.5 c 128,-1,26
 283 1029 283 1029 283 799 c 0,27,28
 283 577 283 577 350 412.5 c 128,-1,29
 417 248 417 248 537 172 c 1,30,-1
 537 0 l 1,31,-1
 74 0 l 1,0,-1
EndSplineSet
EndChar
StartChar: pi
Encoding: 960 960 155
Width: 1233
Flags: W
Fore
80 1100 m 1,0,-1
 1153 1100 l 1,1,-1
 1153 952 l 1,2,-1
 1012 952 l 1,3,-1
 1012 248 l 2,4,5
 1012 176 1012 176 1036.5 144.5 c 128,-1,6
 1061 113 1061 113 1116 113 c 0,7,8
 1131 113 1131 113 1153 115.5 c 128,-1,9
 1175 118 1175 118 1182 119 c 1,10,-1
 1182 -14 l 1,11,12
 1147 -27 1147 -27 1110 -33 c 128,-1,13
 1073 -39 1073 -39 1036 -39 c 0,14,15
 923 -39 923 -39 877 26.5 c 128,-1,16
 831 92 831 92 831 268 c 2,17,-1
 831 952 l 1,18,-1
 403 952 l 1,19,-1
 403 0 l 1,20,-1
 223 0 l 1,21,-1
 223 952 l 1,22,-1
 80 952 l 1,23,-1
 80 1100 l 1,0,-1
EndSplineSet
EndChar
StartChar: endash
Encoding: 8211 8211 178
Width: 1233
Flags: W
Fore
0 633 m 1,0,-1
 1233 633 l 1,1,-1
 1233 492 l 1,2,-1
 0 492 l 1,3,-1
 0 633 l 1,0,-1
EndSplineSet
EndChar
StartChar: emdash
Encoding: 8212 8212 179
Width: 1233
Flags: W
Fore
0 633 m 1,0,-1
 1233 633 l 1,1,-1
 1233 492 l 1,2,-1
 0 492 l 1,3,-1
 0 633 l 1,0,-1
EndSplineSet
EndChar
StartChar: quoteleft
Encoding: 8216 8216 182
Width: 1233
Flags: W
Fore
715 967 m 1,0,-1
 463 967 l 1,1,-1
 463 1174 l 1,2,-1
 659 1556 l 1,3,-1
 813 1556 l 1,4,-1
 715 1174 l 1,5,-1
 715 967 l 1,0,-1
EndSplineSet
EndChar
StartChar: quoteright
Encoding: 8217 8217 183
Width: 1233
Flags: W
Fore
561 1556 m 1,0,-1
 813 1556 l 1,1,-1
 813 1350 l 1,2,-1
 616 967 l 1,3,-1
 463 967 l 1,4,-1
 561 1350 l 1,5,-1
 561 1556 l 1,0,-1
EndSplineSet
EndChar
StartChar: quotesinglbase
Encoding: 8218 8218 196
Width: 1233
Flags: W
Fore
502 303 m 1,0,-1
 754 303 l 1,1,-1
 754 96 l 1,2,-1
 557 -287 l 1,3,-1
 403 -287 l 1,4,-1
 502 96 l 1,5,-1
 502 303 l 1,0,-1
EndSplineSet
EndChar
StartChar: quotedblleft
Encoding: 8220 8220 180
Width: 1233
Flags: W
Fore
924 967 m 1,0,-1
 672 967 l 1,1,-1
 672 1174 l 1,2,-1
 868 1556 l 1,3,-1
 1022 1556 l 1,4,-1
 924 1174 l 1,5,-1
 924 967 l 1,0,-1
465 967 m 1,6,-1
 211 967 l 1,7,-1
 211 1174 l 1,8,-1
 410 1556 l 1,9,-1
 563 1556 l 1,10,-1
 465 1174 l 1,11,-1
 465 967 l 1,6,-1
EndSplineSet
EndChar
StartChar: quotedblright
Encoding: 8221 8221 181
Width: 1233
Flags: W
Fore
768 1556 m 1,0,-1
 1020 1556 l 1,1,-1
 1020 1350 l 1,2,-1
 823 967 l 1,3,-1
 670 967 l 1,4,-1
 768 1350 l 1,5,-1
 768 1556 l 1,0,-1
309 1556 m 1,6,-1
 561 1556 l 1,7,-1
 561 1350 l 1,8,-1
 365 967 l 1,9,-1
 211 967 l 1,10,-1
 309 1350 l 1,11,-1
 309 1556 l 1,6,-1
EndSplineSet
EndChar
StartChar: quotedblbase
Encoding: 8222 8222 197
Width: 1233
Flags: W
Fore
768 303 m 1,0,-1
 1020 303 l 1,1,-1
 1020 96 l 1,2,-1
 823 -287 l 1,3,-1
 670 -287 l 1,4,-1
 768 96 l 1,5,-1
 768 303 l 1,0,-1
309 303 m 1,6,-1
 561 303 l 1,7,-1
 561 96 l 1,8,-1
 365 -287 l 1,9,-1
 211 -287 l 1,10,-1
 309 96 l 1,11,-1
 309 303 l 1,6,-1
EndSplineSet
EndChar
StartChar: dagger
Encoding: 8224 8224 130
Width: 1233
Flags: W
Fore
528 1493 m 1,0,-1
 705 1493 l 1,1,-1
 705 1073 l 1,2,-1
 1071 1073 l 1,3,-1
 1071 920 l 1,4,-1
 705 920 l 1,5,-1
 705 -197 l 1,6,-1
 528 -197 l 1,7,-1
 528 920 l 1,8,-1
 162 920 l 1,9,-1
 162 1073 l 1,10,-1
 528 1073 l 1,11,-1
 528 1493 l 1,0,-1
EndSplineSet
EndChar
StartChar: daggerdbl
Encoding: 8225 8225 194
Width: 1233
Flags: W
Fore
1071 223 m 1,0,-1
 705 223 l 1,1,-1
 705 -197 l 1,2,-1
 528 -197 l 1,3,-1
 528 223 l 1,4,-1
 162 223 l 1,5,-1
 162 377 l 1,6,-1
 528 377 l 1,7,-1
 528 920 l 1,8,-1
 162 920 l 1,9,-1
 162 1073 l 1,10,-1
 528 1073 l 1,11,-1
 528 1493 l 1,12,-1
 705 1493 l 1,13,-1
 705 1073 l 1,14,-1
 1071 1073 l 1,15,-1
 1071 920 l 1,16,-1
 705 920 l 1,17,-1
 705 377 l 1,18,-1
 1071 377 l 1,19,-1
 1071 223 l 1,0,-1
EndSplineSet
EndChar
StartChar: bullet
Encoding: 8226 8226 135
Width: 1233
Flags: W
Fore
319 762 m 0,0,1
 319 886 319 886 405 971.5 c 128,-1,2
 491 1057 491 1057 616 1057 c 0,3,4
 740 1057 740 1057 826.5 971 c 128,-1,5
 913 885 913 885 913 762 c 0,6,7
 913 638 913 638 826 551.5 c 128,-1,8
 739 465 739 465 614 465 c 0,9,10
 490 465 490 465 404.5 550.5 c 128,-1,11
 319 636 319 636 319 762 c 0,0,1
EndSplineSet
EndChar
StartChar: ellipsis
Encoding: 8230 8230 171
Width: 1233
Flags: W
Fore
80 305 m 1,0,-1
 332 305 l 1,1,-1
 332 0 l 1,2,-1
 80 0 l 1,3,-1
 80 305 l 1,0,-1
899 305 m 1,4,-1
 1151 305 l 1,5,-1
 1151 0 l 1,6,-1
 899 0 l 1,7,-1
 899 305 l 1,4,-1
489 305 m 1,8,-1
 741 305 l 1,9,-1
 741 0 l 1,10,-1
 489 0 l 1,11,-1
 489 305 l 1,8,-1
EndSplineSet
Ligature: 0 0 'liga' period period period
EndChar
StartChar: perthousand
Encoding: 8240 8240 198
Width: 1233
Flags: W
Fore
72 567 m 1,0,-1
 35 664 l 1,1,-1
 1079 1079 l 1,2,-1
 1118 983 l 1,3,-1
 72 567 l 1,0,-1
166 289 m 0,4,5
 166 218 166 218 213.5 169.5 c 128,-1,6
 261 121 261 121 330 121 c 0,7,8
 398 121 398 121 447 170.5 c 128,-1,9
 496 220 496 220 496 289 c 0,10,11
 496 356 496 356 446.5 405.5 c 128,-1,12
 397 455 397 455 330 455 c 0,13,14
 261 455 261 455 213.5 406.5 c 128,-1,15
 166 358 166 358 166 289 c 0,4,5
45 289 m 0,16,17
 45 410 45 410 127.5 492.5 c 128,-1,18
 210 575 210 575 330 575 c 0,19,20
 450 575 450 575 533 492 c 128,-1,21
 616 409 616 409 616 289 c 0,22,23
 616 168 616 168 532.5 84 c 128,-1,24
 449 0 449 0 330 0 c 0,25,26
 209 0 209 0 127 83 c 128,-1,27
 45 166 45 166 45 289 c 0,16,17
121 1145 m 0,28,29
 121 1076 121 1076 169.5 1027.5 c 128,-1,30
 218 979 218 979 287 979 c 0,31,32
 356 979 356 979 404.5 1027.5 c 128,-1,33
 453 1076 453 1076 453 1145 c 0,34,35
 453 1212 453 1212 403.5 1261.5 c 128,-1,36
 354 1311 354 1311 287 1311 c 0,37,38
 218 1311 218 1311 169.5 1262.5 c 128,-1,39
 121 1214 121 1214 121 1145 c 0,28,29
0 1145 m 0,40,41
 0 1265 0 1265 83 1348.5 c 128,-1,42
 166 1432 166 1432 287 1432 c 0,43,44
 407 1432 407 1432 490 1348.5 c 128,-1,45
 573 1265 573 1265 573 1145 c 0,46,47
 573 1024 573 1024 490 940 c 128,-1,48
 407 856 407 856 287 856 c 0,49,50
 166 856 166 856 83 939.5 c 128,-1,51
 0 1023 0 1023 0 1145 c 0,40,41
780 289 m 0,52,53
 780 218 780 218 828.5 169.5 c 128,-1,54
 877 121 877 121 946 121 c 0,55,56
 1016 121 1016 121 1064 169.5 c 128,-1,57
 1112 218 1112 218 1112 289 c 0,58,59
 1112 356 1112 356 1063 405.5 c 128,-1,60
 1014 455 1014 455 946 455 c 0,61,62
 877 455 877 455 828.5 406.5 c 128,-1,63
 780 358 780 358 780 289 c 0,52,53
659 289 m 0,64,65
 659 409 659 409 742 492 c 128,-1,66
 825 575 825 575 946 575 c 0,67,68
 1066 575 1066 575 1149.5 492 c 128,-1,69
 1233 409 1233 409 1233 289 c 0,70,71
 1233 168 1233 168 1149.5 84 c 128,-1,72
 1066 0 1066 0 946 0 c 0,73,74
 825 0 825 0 742 83.5 c 128,-1,75
 659 167 659 167 659 289 c 0,64,65
EndSplineSet
EndChar
StartChar: guilsinglleft
Encoding: 8249 8249 190
Width: 1233
Flags: W
Fore
815 1059 m 1,0,-1
 815 868 l 1,1,-1
 514 600 l 1,2,-1
 815 332 l 1,3,-1
 815 141 l 1,4,-1
 346 559 l 1,5,-1
 346 641 l 1,6,-1
 815 1059 l 1,0,-1
EndSplineSet
EndChar
StartChar: guilsinglright
Encoding: 8250 8250 191
Width: 1233
Flags: W
Fore
420 1059 m 1,0,-1
 889 641 l 1,1,-1
 889 559 l 1,2,-1
 420 141 l 1,3,-1
 420 332 l 1,4,-1
 721 600 l 1,5,-1
 420 868 l 1,6,-1
 420 1059 l 1,0,-1
EndSplineSet
EndChar
StartChar: Euro
Encoding: 8364 8364 258
Width: 1233
Flags: W
Fore
211 948 m 1,0,1
 259 1231 259 1231 396 1375.5 c 128,-1,2
 533 1520 533 1520 756 1520 c 0,3,4
 840 1520 840 1520 913.5 1500 c 128,-1,5
 987 1480 987 1480 1061 1438 c 1,6,-1
 1061 1231 l 1,7,8
 995 1292 995 1292 915.5 1326 c 128,-1,9
 836 1360 836 1360 758 1360 c 0,10,11
 612 1360 612 1360 525 1256 c 128,-1,12
 438 1152 438 1152 414 948 c 1,13,-1
 895 948 l 1,14,-1
 846 840 l 1,15,-1
 404 840 l 1,16,17
 402 820 402 820 401.5 797.5 c 128,-1,18
 401 775 401 775 401 729 c 0,19,20
 401 714 401 714 401.5 695 c 128,-1,21
 402 676 402 676 403 653 c 1,22,-1
 764 653 l 1,23,-1
 715 543 l 1,24,-1
 414 543 l 1,25,26
 437 340 437 340 524 235.5 c 128,-1,27
 611 131 611 131 758 131 c 0,28,29
 837 131 837 131 915.5 164.5 c 128,-1,30
 994 198 994 198 1061 260 c 1,31,-1
 1061 53 l 1,32,33
 989 11 989 11 915 -9 c 128,-1,34
 841 -29 841 -29 756 -29 c 0,35,36
 530 -29 530 -29 392.5 115 c 128,-1,37
 255 259 255 259 211 543 c 1,38,-1
 37 543 l 1,39,-1
 86 653 l 1,40,-1
 203 653 l 1,41,42
 202 665 202 665 201 685 c 0,43,44
 199 730 199 730 199 745 c 0,45,46
 199 763 199 763 201 810 c 0,47,48
 202 829 202 829 203 840 c 1,49,-1
 37 840 l 1,50,-1
 86 948 l 1,51,-1
 211 948 l 1,0,1
EndSplineSet
EndChar
StartChar: trademark
Encoding: 8482 8482 140
Width: 1233
Flags: W
Fore
438 1493 m 1,0,-1
 438 1399 l 1,1,-1
 276 1399 l 1,2,-1
 276 915 l 1,3,-1
 162 915 l 1,4,-1
 162 1399 l 1,5,-1
 0 1399 l 1,6,-1
 0 1493 l 1,7,-1
 438 1493 l 1,0,-1
692 1493 m 1,8,-1
 829 1237 l 1,9,-1
 954 1493 l 1,10,-1
 1126 1493 l 1,11,-1
 1126 915 l 1,12,-1
 1012 915 l 1,13,-1
 1012 1397 l 1,14,-1
 856 1096 l 1,15,-1
 801 1096 l 1,16,-1
 635 1397 l 1,17,-1
 635 915 l 1,18,-1
 522 915 l 1,19,-1
 522 1493 l 1,20,-1
 692 1493 l 1,8,-1
EndSplineSet
Ligature: 0 0 'liga' T M
EndChar
StartChar: partialdiff
Encoding: 8706 8706 152
Width: 1233
Flags: W
Fore
842 621 m 1,0,1
 857 708 857 708 864.5 789.5 c 128,-1,2
 872 871 872 871 872 946 c 0,3,4
 872 1075 872 1075 835.5 1140.5 c 128,-1,5
 799 1206 799 1206 727 1206 c 0,6,7
 672 1206 672 1206 600 1148 c 128,-1,8
 528 1090 528 1090 492 1090 c 0,9,10
 456 1090 456 1090 432 1112 c 128,-1,11
 408 1134 408 1134 408 1165 c 0,12,13
 408 1227 408 1227 480 1276 c 128,-1,14
 552 1325 552 1325 653 1325 c 0,15,16
 833 1325 833 1325 940 1170 c 128,-1,17
 1047 1015 1047 1015 1047 752 c 0,18,19
 1047 417 1047 417 902.5 196 c 128,-1,20
 758 -25 758 -25 545 -25 c 0,21,22
 393 -25 393 -25 291.5 83 c 128,-1,23
 190 191 190 191 190 354 c 0,24,25
 190 552 190 552 300.5 680.5 c 128,-1,26
 411 809 411 809 573 809 c 0,27,28
 674 809 674 809 739 763.5 c 128,-1,29
 804 718 804 718 842 621 c 1,0,1
793 494 m 0,30,31
 793 610 793 610 749.5 672.5 c 128,-1,32
 706 735 706 735 627 735 c 0,33,34
 518 735 518 735 447.5 606 c 128,-1,35
 377 477 377 477 377 270 c 0,36,37
 377 154 377 154 420 92.5 c 128,-1,38
 463 31 463 31 543 31 c 0,39,40
 652 31 652 31 722.5 161 c 128,-1,41
 793 291 793 291 793 494 c 0,30,31
EndSplineSet
EndChar
StartChar: Delta
Encoding: 8710 8710 168
Width: 1233
Flags: W
Fore
-6 0 m 1,0,-1
 512 1423 l 1,1,-1
 721 1423 l 1,2,-1
 1241 0 l 1,3,-1
 -6 0 l 1,0,-1
616 1219 m 1,4,-1
 248 172 l 1,5,-1
 985 172 l 1,6,-1
 616 1219 l 1,4,-1
EndSplineSet
EndChar
StartChar: product
Encoding: 8719 8719 154
Width: 1233
Flags: W
Fore
152 -436 m 1,0,-1
 152 1518 l 1,1,-1
 1081 1518 l 1,2,-1
 1081 -436 l 1,3,-1
 926 -436 l 1,4,-1
 926 1386 l 1,5,-1
 307 1386 l 1,6,-1
 307 -436 l 1,7,-1
 152 -436 l 1,0,-1
EndSplineSet
EndChar
StartChar: summation
Encoding: 8721 8721 153
Width: 1233
Flags: W
Fore
332 -299 m 1,0,-1
 1085 -299 l 1,1,-1
 1085 -436 l 1,2,-1
 143 -436 l 1,3,-1
 143 -344 l 1,4,-1
 692 575 l 1,5,-1
 143 1423 l 1,6,-1
 143 1518 l 1,7,-1
 1065 1518 l 1,8,-1
 1065 1378 l 1,9,-1
 332 1378 l 1,10,-1
 854 575 l 1,11,-1
 332 -299 l 1,0,-1
EndSplineSet
EndChar
StartChar: minus
Encoding: 8722 8722 238
Width: 1233
Flags: W
Fore
88 727 m 1,0,-1
 1145 727 l 1,1,-1
 1145 557 l 1,2,-1
 88 557 l 1,3,-1
 88 727 l 1,0,-1
EndSplineSet
EndChar
StartChar: fraction
Encoding: 8725 8725 188
Width: 1233
Flags: W
Fore
889 1493 m 1,0,-1
 1079 1493 l 1,1,-1
 293 -190 l 1,2,-1
 102 -190 l 1,3,-1
 889 1493 l 1,0,-1
EndSplineSet
EndChar
StartChar: periodcentered
Encoding: 8729 8729 257
Width: 1233
Flags: W
Fore
489 864 m 1,0,-1
 741 864 l 1,1,-1
 741 559 l 1,2,-1
 489 559 l 1,3,-1
 489 864 l 1,0,-1
EndSplineSet
EndChar
StartChar: radical
Encoding: 8730 8730 165
Width: 1233
Flags: W
Fore
100 733 m 1,0,-1
 59 858 l 1,1,-1
 350 956 l 1,2,-1
 569 225 l 1,3,-1
 1036 1696 l 1,4,-1
 1184 1696 l 1,5,-1
 1184 1565 l 1,6,-1
 1137 1565 l 1,7,-1
 631 -39 l 1,8,-1
 504 -39 l 1,9,-1
 258 786 l 1,10,-1
 100 733 l 1,0,-1
EndSplineSet
EndChar
StartChar: infinity
Encoding: 8734 8734 146
Width: 1233
Flags: W
Fore
694 627 m 1,0,1
 751 491 751 491 796.5 441 c 128,-1,2
 842 391 842 391 903 391 c 0,3,4
 974 391 974 391 1019.5 458 c 128,-1,5
 1065 525 1065 525 1065 633 c 0,6,7
 1065 740 1065 740 1023 804 c 128,-1,8
 981 868 981 868 911 868 c 0,9,10
 845 868 845 868 792.5 809.5 c 128,-1,11
 740 751 740 751 694 627 c 1,0,1
537 635 m 1,12,13
 481 769 481 769 435 818.5 c 128,-1,14
 389 868 389 868 328 868 c 0,15,16
 257 868 257 868 211.5 801.5 c 128,-1,17
 166 735 166 735 166 629 c 0,18,19
 166 520 166 520 207.5 455.5 c 128,-1,20
 249 391 249 391 317 391 c 0,21,22
 384 391 384 391 437 450 c 128,-1,23
 490 509 490 509 537 635 c 1,12,13
616 764 m 1,24,25
 663 881 663 881 736.5 944.5 c 128,-1,26
 810 1008 810 1008 901 1008 c 0,27,28
 1020 1008 1020 1008 1106 898.5 c 128,-1,29
 1192 789 1192 789 1192 629 c 0,30,31
 1192 462 1192 462 1110.5 356 c 128,-1,32
 1029 250 1029 250 903 250 c 0,33,34
 820 250 820 250 756 300 c 128,-1,35
 692 350 692 350 614 481 c 1,36,37
 549 357 549 357 483 303.5 c 128,-1,38
 417 250 417 250 332 250 c 0,39,40
 207 250 207 250 124 357 c 128,-1,41
 41 464 41 464 41 629 c 0,42,43
 41 802 41 802 119.5 905 c 128,-1,44
 198 1008 198 1008 330 1008 c 0,45,46
 424 1008 424 1008 492 950.5 c 128,-1,47
 560 893 560 893 616 764 c 1,24,25
EndSplineSet
EndChar
StartChar: integral
Encoding: 8747 8747 156
Width: 1233
Flags: W
Fore
393 -262 m 0,0,1
 499 -262 499 -262 513 426 c 0,2,3
 515 534 515 534 516 591 c 0,4,5
 528 1106 528 1106 623 1328 c 128,-1,6
 718 1550 718 1550 920 1550 c 0,7,8
 1000 1550 1000 1550 1050 1508 c 128,-1,9
 1100 1466 1100 1466 1100 1401 c 0,10,11
 1100 1347 1100 1347 1068 1315.5 c 128,-1,12
 1036 1284 1036 1284 981 1284 c 0,13,14
 939 1284 939 1284 910.5 1303 c 128,-1,15
 882 1322 882 1322 871 1357 c 0,16,17
 865 1372 865 1372 860.5 1408 c 128,-1,18
 856 1444 856 1444 840 1444 c 0,19,20
 733 1444 733 1444 719 825 c 0,21,22
 715 632 715 632 711 522 c 0,23,24
 694 43 694 43 599.5 -164 c 128,-1,25
 505 -371 505 -371 309 -371 c 0,26,27
 230 -371 230 -371 179.5 -329.5 c 128,-1,28
 129 -288 129 -288 129 -223 c 0,29,30
 129 -167 129 -167 163 -135.5 c 128,-1,31
 197 -104 197 -104 258 -104 c 0,32,33
 291 -104 291 -104 315 -118.5 c 128,-1,34
 339 -133 339 -133 354 -161 c 0,35,36
 363 -178 363 -178 368.5 -220 c 128,-1,37
 374 -262 374 -262 393 -262 c 0,0,1
EndSplineSet
EndChar
StartChar: approxequal
Encoding: 8776 8776 167
Width: 1233
Flags: W
Fore
1145 963 m 1,0,-1
 1145 788 l 1,1,2
 1070 729 1070 729 998.5 701.5 c 128,-1,3
 927 674 927 674 848 674 c 0,4,5
 758 674 758 674 645 725 c 0,6,7
 623 735 623 735 612 739 c 0,8,9
 535 773 535 773 483.5 785 c 128,-1,10
 432 797 432 797 381 797 c 0,11,12
 302 797 302 797 231.5 767.5 c 128,-1,13
 161 738 161 738 88 674 c 1,14,-1
 88 848 l 1,15,16
 166 908 166 908 239 935.5 c 128,-1,17
 312 963 312 963 395 963 c 0,18,19
 448 963 448 963 498 952 c 128,-1,20
 548 941 548 941 623 909 c 0,21,22
 633 905 633 905 655 894 c 0,23,24
 771 840 771 840 864 840 c 0,25,26
 934 840 934 840 1002.5 870 c 128,-1,27
 1071 900 1071 900 1145 963 c 1,0,-1
1145 596 m 1,28,-1
 1145 420 l 1,29,30
 1070 361 1070 361 998.5 333 c 128,-1,31
 927 305 927 305 848 305 c 0,32,33
 758 305 758 305 645 356 c 0,34,35
 623 366 623 366 612 371 c 0,36,37
 529 407 529 407 479.5 418.5 c 128,-1,38
 430 430 430 430 381 430 c 0,39,40
 303 430 303 430 232.5 400 c 128,-1,41
 162 370 162 370 88 305 c 1,42,-1
 88 479 l 1,43,44
 167 541 167 541 240 568.5 c 128,-1,45
 313 596 313 596 395 596 c 0,46,47
 491 596 491 596 621 541 c 2,48,-1
 622 541 l 2,49,50
 633 536 633 536 655 526 c 0,51,52
 771 471 771 471 864 471 c 0,53,54
 932 471 932 471 1001 501.5 c 128,-1,55
 1070 532 1070 532 1145 596 c 1,28,-1
EndSplineSet
EndChar
StartChar: notequal
Encoding: 8800 8800 143
Width: 1233
Flags: W
Fore
88 930 m 1,0,-1
 735 930 l 1,1,-1
 981 1245 l 1,2,-1
 1106 1143 l 1,3,-1
 942 930 l 1,4,-1
 1145 930 l 1,5,-1
 1145 760 l 1,6,-1
 811 760 l 1,7,-1
 627 524 l 1,8,-1
 1145 524 l 1,9,-1
 1145 352 l 1,10,-1
 498 352 l 1,11,-1
 250 37 l 1,12,-1
 125 141 l 1,13,-1
 289 352 l 1,14,-1
 88 352 l 1,15,-1
 88 524 l 1,16,-1
 418 524 l 1,17,-1
 602 760 l 1,18,-1
 88 760 l 1,19,-1
 88 930 l 1,0,-1
EndSplineSet
Ligature: 0 0 'liga' equal uni0338
EndChar
StartChar: lessequal
Encoding: 8804 8804 148
Width: 1233
Flags: W
Fore
1143 438 m 1,0,-1
 1143 256 l 1,1,-1
 86 588 l 1,2,-1
 86 756 l 1,3,-1
 1143 1087 l 1,4,-1
 1143 903 l 1,5,-1
 342 672 l 1,6,-1
 1143 438 l 1,0,-1
1143 170 m 1,7,-1
 1143 0 l 1,8,-1
 86 0 l 1,9,-1
 86 170 l 1,10,-1
 1143 170 l 1,7,-1
EndSplineSet
EndChar
StartChar: greaterequal
Encoding: 8805 8805 149
Width: 1233
Flags: W
Fore
88 438 m 1,0,-1
 891 672 l 1,1,-1
 88 903 l 1,2,-1
 88 1087 l 1,3,-1
 1145 756 l 1,4,-1
 1145 588 l 1,5,-1
 88 256 l 1,6,-1
 88 438 l 1,0,-1
88 170 m 1,7,-1
 1145 170 l 1,8,-1
 1145 0 l 1,9,-1
 88 0 l 1,10,-1
 88 170 l 1,7,-1
EndSplineSet
EndChar
StartChar: lozenge
Encoding: 9674 9674 185
Width: 1233
Flags: W
Fore
616 1409 m 1,0,-1
 231 592 l 1,1,-1
 616 -233 l 1,2,-1
 1001 592 l 1,3,-1
 616 1409 l 1,0,-1
616 1653 m 1,4,-1
 1116 592 l 1,5,-1
 616 -477 l 1,6,-1
 117 592 l 1,7,-1
 616 1653 l 1,4,-1
EndSplineSet
EndChar
StartChar: fi
Encoding: 64257 64257 192
Width: 1233
Flags: W
Fore
895 1554 m 1,0,-1
 1079 1554 l 1,1,-1
 1079 1321 l 1,2,-1
 895 1321 l 1,3,-1
 895 1554 l 1,0,-1
776 1556 m 1,4,-1
 776 1403 l 1,5,-1
 596 1403 l 2,6,7
 497 1403 497 1403 458.5 1362.5 c 128,-1,8
 420 1322 420 1322 420 1219 c 2,9,-1
 420 1118 l 1,10,-1
 1079 1118 l 1,11,-1
 1079 0 l 1,12,-1
 895 0 l 1,13,-1
 895 977 l 1,14,-1
 420 977 l 1,15,-1
 420 0 l 1,16,-1
 236 0 l 1,17,-1
 236 977 l 1,18,-1
 35 977 l 1,19,-1
 35 1120 l 1,20,-1
 236 1120 l 1,21,-1
 236 1198 l 2,22,23
 236 1382 236 1382 320.5 1469 c 128,-1,24
 405 1556 405 1556 584 1556 c 2,25,-1
 776 1556 l 1,4,-1
EndSplineSet
Ligature: 0 1 'liga' f i
EndChar
StartChar: fl
Encoding: 64258 64258 193
Width: 1233
Flags: W
Fore
1079 1556 m 1,0,-1
 1079 0 l 1,1,-1
 895 0 l 1,2,-1
 895 1403 l 1,3,-1
 596 1403 l 2,4,5
 497 1403 497 1403 458.5 1362.5 c 128,-1,6
 420 1322 420 1322 420 1219 c 2,7,-1
 420 1118 l 1,8,-1
 713 1118 l 1,9,-1
 713 977 l 1,10,-1
 420 977 l 1,11,-1
 420 0 l 1,12,-1
 236 0 l 1,13,-1
 236 977 l 1,14,-1
 35 977 l 1,15,-1
 35 1120 l 1,16,-1
 236 1120 l 1,17,-1
 236 1198 l 2,18,19
 236 1382 236 1382 320.5 1469 c 128,-1,20
 405 1556 405 1556 584 1556 c 2,21,-1
 1079 1556 l 1,0,-1
EndSplineSet
Ligature: 0 1 'liga' f l
EndChar
StartChar: dlLtcaron
Encoding: 65537 -1 194
Width: 1233
Flags: HW
Fore
544 1638 m 1,0,-1
 742 1638 l 1,1,-1
 629 1262 l 1,2,-1
 475 1262 l 1,3,-1
 544 1638 l 1,0,-1
EndSplineSet
EndChar
StartChar: c6459
Encoding: 65538 -1 259
Width: 1233
Flags: W
Fore
319 1497 m 1,0,-1
 522 1497 l 1,1,-1
 522 1294 l 1,2,-1
 319 1294 l 1,3,-1
 319 1497 l 1,0,-1
711 1497 m 1,4,-1
 913 1497 l 1,5,-1
 913 1294 l 1,6,-1
 711 1294 l 1,7,-1
 711 1497 l 1,4,-1
EndSplineSet
EndChar
StartChar: c6460
Encoding: 65539 -1 260
Width: 1233
Flags: W
Fore
672 1526 m 1,0,-1
 858 1526 l 1,1,-1
 629 1262 l 1,2,-1
 475 1262 l 1,3,-1
 672 1526 l 1,0,-1
EndSplineSet
EndChar
StartChar: c6461
Encoding: 65540 -1 261
Width: 1233
Flags: W
Fore
612 1337 m 1,0,-1
 555 1370 l 2,1,2
 530 1384 530 1384 514.5 1389.5 c 128,-1,3
 499 1395 499 1395 487 1395 c 0,4,5
 452 1395 452 1395 432 1370 c 128,-1,6
 412 1345 412 1345 412 1300 c 2,7,-1
 412 1294 l 1,8,-1
 287 1294 l 1,9,10
 287 1395 287 1395 338.5 1454 c 128,-1,11
 390 1513 390 1513 475 1513 c 0,12,13
 511 1513 511 1513 541.5 1505 c 128,-1,14
 572 1497 572 1497 621 1470 c 2,15,-1
 678 1440 l 1,16,17
 700 1427 700 1427 717.5 1421 c 128,-1,18
 735 1415 735 1415 750 1415 c 0,19,20
 781 1415 781 1415 801 1440.5 c 128,-1,21
 821 1466 821 1466 821 1507 c 2,22,-1
 821 1513 l 1,23,-1
 946 1513 l 1,24,25
 944 1413 944 1413 893 1353.5 c 128,-1,26
 842 1294 842 1294 758 1294 c 0,27,28
 724 1294 724 1294 694 1302 c 128,-1,29
 664 1310 664 1310 612 1337 c 1,0,-1
EndSplineSet
EndChar
StartChar: c6468
Encoding: 65541 -1 262
Width: 1233
Flags: W
Fore
561 1526 m 1,0,-1
 758 1262 l 1,1,-1
 604 1262 l 1,2,-1
 377 1526 l 1,3,-1
 561 1526 l 1,0,-1
EndSplineSet
EndChar
StartChar: c6470
Encoding: 65542 -1 263
Width: 1233
Flags: W
Fore
522 1528 m 1,0,-1
 711 1528 l 1,1,-1
 922 1262 l 1,2,-1
 782 1262 l 1,3,-1
 616 1440 l 1,4,-1
 451 1262 l 1,5,-1
 311 1262 l 1,6,-1
 522 1528 l 1,0,-1
EndSplineSet
EndChar
StartChar: c6472
Encoding: 65543 -1 264
Width: 1233
Flags: W
Fore
522 1262 m 1,0,-1
 311 1528 l 1,1,-1
 451 1528 l 1,2,-1
 616 1350 l 1,3,-1
 782 1528 l 1,4,-1
 922 1528 l 1,5,-1
 711 1262 l 1,6,-1
 522 1262 l 1,0,-1
EndSplineSet
EndChar
StartChar: c6477
Encoding: 65544 -1 265
Width: 1233
Flags: W
Fore
51 504 m 1,0,-1
 27 612 l 1,1,-1
 1087 874 l 1,2,-1
 1114 766 l 1,3,-1
 51 504 l 1,0,-1
EndSplineSet
EndChar
StartChar: c6478
Encoding: 65545 -1 266
Width: 1233
Flags: W
Fore
631 1503 m 1,0,-1
 793 1503 l 1,1,-1
 793 965 l 1,2,-1
 909 965 l 1,3,-1
 909 854 l 1,4,-1
 793 854 l 1,5,-1
 793 668 l 1,6,-1
 655 668 l 1,7,-1
 655 854 l 1,8,-1
 268 854 l 1,9,-1
 268 975 l 1,10,-1
 631 1503 l 1,0,-1
655 1378 m 1,11,-1
 381 965 l 1,12,-1
 655 965 l 1,13,-1
 655 1378 l 1,11,-1
EndSplineSet
EndChar
StartChar: c6475
Encoding: 65546 -1 267
Width: 1233
Flags: W
Fore
303 1528 m 1,0,-1
 422 1528 l 1,1,2
 434 1474 434 1474 484 1445.5 c 128,-1,3
 534 1417 534 1417 616 1417 c 0,4,5
 699 1417 699 1417 747.5 1444.5 c 128,-1,6
 796 1472 796 1472 811 1528 c 1,7,-1
 930 1528 l 1,8,9
 919 1409 919 1409 839.5 1347.5 c 128,-1,10
 760 1286 760 1286 616 1286 c 0,11,12
 472 1286 472 1286 393 1347 c 128,-1,13
 314 1408 314 1408 303 1528 c 1,0,-1
EndSplineSet
EndChar
StartChar: c6476
Encoding: 65547 -1 268
Width: 1233
Flags: W
Fore
514 1499 m 1,0,-1
 719 1499 l 1,1,-1
 719 1294 l 1,2,-1
 514 1294 l 1,3,-1
 514 1499 l 1,0,-1
EndSplineSet
EndChar
